<svg width="294" height="250" viewBox="0 0 294 250" fill="none" xmlns="http://www.w3.org/2000/svg">
<g clip-path="url(#clip0_56_229)">
<circle cx="147" cy="139" r="108" fill="#9AD19C"/>
<path d="M211.9 225.4C211.7 225.5 211.6 225.6 211.4 225.7C202.3 232.5 192.1 237.9 181 241.5C179.9 241.9 178.8 242.2 177.7 242.5C168 245.4 157.7 246.9 147 246.9C136.3 246.9 126 245.4 116.3 242.5C115.2 242.2 114.1 241.8 113 241.5C111.3 240.9 109.6 240.3 107.9 239.7C107.7 239.6 107.6 239.6 107.4 239.5L109.4 225.1L110 220.9L208.7 209L210 215.5L211.9 225.4Z" fill="#1E1E1E"/>
<path d="M113.1 241.5C114.2 241.9 115.3 242.2 116.4 242.5H177.8C178.9 242.2 180 241.8 181.1 241.5H113.1ZM210.5 215.4L209.2 208.9C209.2 208.8 209.1 208.7 209 208.6C208.9 208.5 208.8 208.5 208.6 208.5L110 220.4C109.9 220.4 109.8 220.5 109.7 220.5C109.6 220.6 109.6 220.7 109.5 220.8L108.9 225.1L107 239.3C107.1 239.4 107.3 239.4 107.4 239.5C107.6 239.6 107.7 239.6 107.9 239.7L109.9 225L110.4 221.3L208.2 209.5L209.4 215.5L211.4 225.7C211.6 225.6 211.7 225.5 211.9 225.4C212.1 225.3 212.2 225.2 212.4 225L210.5 215.4Z" fill="#1E1E1E"/>
<path d="M159.2 29.3001C159.2 29.3001 151.8 21.3001 143.5 19.8001C135.2 18.3001 108.5 27.9001 105.9 38.4001C103.3 48.9001 107.7 64.0001 107.7 64.0001C107.7 64.0001 146.8 27.5001 159.2 29.3001Z" fill="#4CAF50"/>
<path d="M113.9 57.7001C113.4 58.2001 112.9 58.6001 112.4 59.0001C110.3 60.8001 108.8 62.2001 108 63.0001C107.7 61.8001 107.1 59.3001 106.6 56.2001C106.6 56.0001 106.5 55.8001 106.5 55.6001C106.5 55.5001 106.5 55.4001 106.5 55.3001C106.5 55.1001 106.4 54.9001 106.4 54.8001C106.3 55.0001 106.1 55.2001 106 55.4001C106 55.5001 106 55.7001 106.1 55.8001C106.1 55.9001 106.1 56.0001 106.2 56.2001C106.2 56.4001 106.3 56.6001 106.3 56.8001C106.4 57.6001 106.6 58.3001 106.7 59.0001C106.8 59.6001 106.9 60.2001 107 60.7001C107.1 61.0001 107.1 61.2001 107.2 61.5001C107.3 61.9001 107.4 62.2001 107.4 62.5001C107.5 62.8001 107.5 63.0001 107.6 63.2001C107.6 63.4001 107.7 63.6001 107.7 63.7001C107.7 63.8001 107.7 63.9001 107.8 64.0001C107.8 64.1001 107.8 64.1001 107.8 64.1001C107.8 64.1001 108.5 63.4001 109.7 62.3001C109.8 62.2001 110 62.1001 110.1 62.0001C110.3 61.8001 110.5 61.6001 110.8 61.4001C111 61.2001 111.1 61.1001 111.3 60.9001C111.4 60.9001 111.4 60.8001 111.5 60.7001C111.8 60.4001 112.2 60.1001 112.5 59.8001C112.7 59.7001 112.8 59.5001 113 59.4001C113 59.4001 113 59.4001 113 59.3001C113 59.2001 113.3 58.6001 113.9 57.7001ZM113.9 57.7001C113.4 58.2001 112.9 58.6001 112.4 59.0001C110.3 60.8001 108.8 62.2001 108 63.0001C107.7 61.8001 107.1 59.3001 106.6 56.2001C106.6 56.0001 106.5 55.8001 106.5 55.6001C106.5 55.5001 106.5 55.4001 106.5 55.3001C106.5 55.1001 106.4 54.9001 106.4 54.8001C106.3 55.0001 106.1 55.2001 106 55.4001C106 55.5001 106 55.7001 106.1 55.8001C106.1 55.9001 106.1 56.0001 106.2 56.2001C106.2 56.4001 106.3 56.6001 106.3 56.8001C106.4 57.6001 106.6 58.3001 106.7 59.0001C106.8 59.6001 106.9 60.2001 107 60.7001C107.1 61.0001 107.1 61.2001 107.2 61.5001C107.3 61.9001 107.4 62.2001 107.4 62.5001C107.5 62.8001 107.5 63.0001 107.6 63.2001C107.6 63.4001 107.7 63.6001 107.7 63.7001C107.7 63.8001 107.7 63.9001 107.8 64.0001C107.8 64.1001 107.8 64.1001 107.8 64.1001C107.8 64.1001 108.5 63.4001 109.7 62.3001C109.8 62.2001 110 62.1001 110.1 62.0001C110.3 61.8001 110.5 61.6001 110.8 61.4001C111 61.2001 111.1 61.1001 111.3 60.9001C111.4 60.9001 111.4 60.8001 111.5 60.7001C111.8 60.4001 112.2 60.1001 112.5 59.8001C112.7 59.7001 112.8 59.5001 113 59.4001C113 59.4001 113 59.4001 113 59.3001C113 59.2001 113.3 58.6001 113.9 57.7001ZM159.7 29.2001C159.7 29.1001 159.6 29.0001 159.6 28.9001C159.6 28.8001 159.3 28.6001 159 28.3001C158.9 28.2001 158.7 28.0001 158.5 27.8001C158.3 27.6001 158.2 27.5001 158 27.3001C155.4 24.9001 149.8 20.3001 143.6 19.1001C137.7 18.0001 123.1 22.3001 113.7 28.6001C113.6 28.7001 113.4 28.8001 113.3 28.9001C113.1 29.0001 113 29.1001 112.8 29.2001C109 31.9001 106.1 35.0001 105.4 38.1001C105.3 38.5001 105.2 38.9001 105.1 39.3001C104.8 40.9001 104.6 42.5001 104.5 44.2001C104.5 44.5001 104.5 44.9001 104.5 45.2001C104.4 48.6001 104.8 52.0001 105.2 55.0001C105.2 55.2001 105.3 55.5001 105.3 55.7001C105.3 55.8001 105.3 55.9001 105.3 56.0001C105.3 56.1001 105.3 56.2001 105.3 56.3001C105.3 56.4001 105.3 56.6001 105.4 56.7001C105.4 56.9001 105.5 57.1001 105.5 57.3001C106.2 61.1001 107 63.8001 107 64.1001C107 64.2001 107.1 64.3001 107.1 64.3001C107.2 64.4001 107.2 64.4001 107.3 64.4001H107.4C107.5 64.4001 107.7 64.4001 107.7 64.3001C107.8 64.2001 109.4 62.7001 112.2 60.3001C112.4 60.2001 112.5 60.0001 112.7 59.9001C112.9 59.8001 113 59.6001 113.2 59.5001C118.2 55.1001 126 48.4001 133.9 42.5001C134.6 42.0001 135.3 41.5001 135.9 41.0001C136.6 40.5001 137.3 40.0001 138 39.5001C143.1 35.9001 148.1 32.8001 152.3 31.2001C154.9 30.1001 157.2 29.6001 158.9 29.9001C159 29.9001 159.1 29.9001 159.2 29.9001C159.3 29.9001 159.4 29.8001 159.4 29.7001C159.7 29.5001 159.8 29.3001 159.7 29.2001ZM133.5 41.8001C132.6 42.5001 131.7 43.1001 130.9 43.8001C130 44.5001 129 45.2001 128.1 46.0001C123.6 49.5001 119.4 53.1001 115.9 56.1001C115.2 56.7001 114.6 57.2001 114 57.8001C113.5 58.3001 113 58.7001 112.5 59.1001C110.4 60.9001 108.9 62.3001 108.1 63.1001C107.8 61.9001 107.2 59.4001 106.7 56.3001C106.7 56.1001 106.6 55.9001 106.6 55.7001C106.6 55.6001 106.6 55.5001 106.6 55.4001C106.6 55.2001 106.5 55.0001 106.5 54.9001C106.5 54.9001 106.5 54.9001 106.5 54.8001C106.5 54.6001 106.4 54.4001 106.4 54.1001C106 51.4001 105.8 48.4001 105.8 45.4001C105.8 45.1001 105.8 44.7001 105.8 44.4001C105.9 42.5001 106.1 40.7001 106.5 39.0001C106.5 38.8001 106.6 38.7001 106.6 38.5001C107.3 35.7001 109.7 33.0001 113.1 30.6001C113.3 30.5001 113.5 30.3001 113.7 30.2001C113.8 30.1001 114 30.0001 114.2 29.9001C122.4 24.3001 135.1 20.1001 141.8 20.1001C142.5 20.1001 143.1 20.1001 143.8 20.3001C149.3 21.3001 154.4 25.2001 157.1 27.7001C157.3 27.9001 157.4 28.0001 157.6 28.2001C157.8 28.4001 157.9 28.5001 158.1 28.6001C158.2 28.7001 158.3 28.7001 158.3 28.8001C156.2 28.9001 153.6 29.7001 150.7 31.1001C145.3 33.4001 139.3 37.4001 133.5 41.8001ZM113.9 57.7001C113.4 58.2001 112.9 58.6001 112.4 59.0001C110.3 60.8001 108.8 62.2001 108 63.0001C107.7 61.8001 107.1 59.3001 106.6 56.2001C106.6 56.0001 106.5 55.8001 106.5 55.6001C106.5 55.5001 106.5 55.4001 106.5 55.3001C106.5 55.1001 106.4 54.9001 106.4 54.8001C106.3 55.0001 106.1 55.2001 106 55.4001C106 55.5001 106 55.7001 106.1 55.8001C106.1 55.9001 106.1 56.0001 106.2 56.2001C106.2 56.4001 106.3 56.6001 106.3 56.8001C106.4 57.6001 106.6 58.3001 106.7 59.0001C106.8 59.6001 106.9 60.2001 107 60.7001C107.1 61.0001 107.1 61.2001 107.2 61.5001C107.3 61.9001 107.4 62.2001 107.4 62.5001C107.5 62.8001 107.5 63.0001 107.6 63.2001C107.6 63.4001 107.7 63.6001 107.7 63.7001C107.7 63.8001 107.7 63.9001 107.8 64.0001C107.8 64.1001 107.8 64.1001 107.8 64.1001C107.8 64.1001 108.5 63.4001 109.7 62.3001C109.8 62.2001 110 62.1001 110.1 62.0001C110.3 61.8001 110.5 61.6001 110.8 61.4001C111 61.2001 111.1 61.1001 111.3 60.9001C111.4 60.9001 111.4 60.8001 111.5 60.7001C111.8 60.4001 112.2 60.1001 112.5 59.8001C112.7 59.7001 112.8 59.5001 113 59.4001C113 59.4001 113 59.4001 113 59.3001C113 59.2001 113.3 58.6001 113.9 57.7001Z" fill="#1E1E1E"/>
<path d="M146.1 65.2001C167.1 55.1001 181 40.4001 177.1 32.4001C173.3 24.4001 153.1 26.2001 132.2 36.3001C111.2 46.4001 97.3001 61.1001 101.2 69.1001C105 77.1001 125.1 75.3001 146.1 65.2001Z" fill="#1C411D"/>
<path d="M122.7 72.6999C122.5 72.6999 122.3 72.7999 122.2 72.7999C122 72.7999 121.9 72.7999 121.7 72.8999C120.2 73.1999 118.6 73.3999 117.2 73.4999C116.5 73.5999 115.9 73.5999 115.3 73.5999C115.3 73.7999 115.3 73.8999 115.4 74.0999C115.8 74.0999 116.2 74.0999 116.6 73.9999C116.9 73.9999 117.3 73.9999 117.6 73.8999C117.8 73.8999 117.9 73.8999 118.1 73.8999C118.4 73.8999 118.7 73.7999 119.1 73.7999C119.5 73.6999 119.9 73.6999 120.4 73.5999C120.4 73.5999 120.4 73.5999 120.5 73.5999C120.9 73.4999 121.3 73.4999 121.6 73.3999C121.7 73.3999 121.8 73.3999 121.9 73.3999C122 73.3999 122.2 73.3999 122.4 73.2999C122.6 73.2999 122.8 73.1999 122.9 73.1999C123.2 73.0999 123.6 73.0999 124 72.9999C124.3 72.9999 124.6 72.8999 124.9 72.7999C125.5 72.6999 126.2 72.4999 126.8 72.3999C127.3 72.2999 127.9 72.0999 128.4 71.9999C128.5 71.9999 128.6 71.9999 128.7 71.8999C129.2 71.7999 129.6 71.5999 130.1 71.4999H130.2C130.8 71.2999 131.3 71.1999 131.9 70.9999C132.1 70.7999 132.2 70.4999 132.4 70.2999C128.9 71.2999 125.7 72.0999 122.7 72.6999ZM122.7 72.6999C122.5 72.6999 122.3 72.7999 122.2 72.7999C122 72.7999 121.9 72.7999 121.7 72.8999C120.2 73.1999 118.6 73.3999 117.2 73.4999C116.5 73.5999 115.9 73.5999 115.3 73.5999C115.3 73.7999 115.3 73.8999 115.4 74.0999C115.8 74.0999 116.2 74.0999 116.6 73.9999C116.9 73.9999 117.3 73.9999 117.6 73.8999C117.8 73.8999 117.9 73.8999 118.1 73.8999C118.4 73.8999 118.7 73.7999 119.1 73.7999C119.5 73.6999 119.9 73.6999 120.4 73.5999C120.4 73.5999 120.4 73.5999 120.5 73.5999C120.9 73.4999 121.3 73.4999 121.6 73.3999C121.7 73.3999 121.8 73.3999 121.9 73.3999C122 73.3999 122.2 73.3999 122.4 73.2999C122.6 73.2999 122.8 73.1999 122.9 73.1999C123.2 73.0999 123.6 73.0999 124 72.9999C124.3 72.9999 124.6 72.8999 124.9 72.7999C125.5 72.6999 126.2 72.4999 126.8 72.3999C127.3 72.2999 127.9 72.0999 128.4 71.9999C128.5 71.9999 128.6 71.9999 128.7 71.8999C129.2 71.7999 129.6 71.5999 130.1 71.4999H130.2C130.8 71.2999 131.3 71.1999 131.9 70.9999C132.1 70.7999 132.2 70.4999 132.4 70.2999C128.9 71.2999 125.7 72.0999 122.7 72.6999ZM177.6 32.1999C175.6 28.0999 169.8 26.3999 161 27.0999C160 27.1999 159 27.2999 158 27.3999C157.8 27.3999 157.6 27.4999 157.4 27.4999C157.2 27.4999 157 27.5999 156.7 27.5999C152.6 28.2999 148.1 29.3999 143.5 30.9999C139.7 32.2999 135.7 33.8999 131.8 35.7999C122.9 40.0999 115.1 45.2999 109.3 50.6999C109.1 50.8999 108.8 51.1999 108.6 51.3999C108.2 51.7999 107.9 52.0999 107.5 52.4999C107.3 52.6999 107.1 52.8999 106.9 53.0999C106.6 53.3999 106.4 53.6999 106.1 53.8999C105.9 54.0999 105.8 54.1999 105.6 54.3999C105.4 54.5999 105.3 54.6999 105.1 54.8999C103.7 56.5999 102.6 58.1999 101.7 59.6999C101.5 60.0999 101.3 60.4999 101.1 60.8999C101 61.1999 100.8 61.4999 100.7 61.6999C99.4999 64.4999 99.4999 66.9999 100.5 69.0999C102.2 72.5999 106.7 74.3999 113.3 74.3999C113.6 74.3999 113.9 74.3999 114.2 74.3999C114.4 74.3999 114.5 74.3999 114.7 74.3999C114.9 74.3999 115 74.3999 115.2 74.3999C115.8 74.3999 116.4 74.2999 117 74.1999C118.5 74.0999 120 73.8999 121.6 73.5999C121.8 73.5999 121.9 73.5999 122.1 73.4999C122.3 73.4999 122.5 73.3999 122.6 73.3999C125.3 72.8999 128.1 72.1999 130.9 71.2999C131.2 71.1999 131.5 71.0999 131.8 70.9999C132 70.8999 132.3 70.7999 132.5 70.7999C133.4 70.4999 134.4 70.1999 135.3 69.7999C138.8 68.4999 142.4 66.9999 146 65.2999C148.4 64.0999 150.7 62.8999 152.9 61.6999C153.2 61.4999 153.5 61.2999 153.9 61.1999C156.3 59.7999 158.7 58.2999 160.8 56.6999C161.1 56.4999 161.4 56.2999 161.7 56.0999C162.6 55.3999 163.5 54.7999 164.3 54.0999C164.4 53.9999 164.6 53.8999 164.7 53.7999C164.8 53.6999 165 53.5999 165.1 53.4999C166.3 52.4999 167.5 51.4999 168.5 50.4999C168.6 50.3999 168.8 50.2999 168.9 50.0999C169 49.9999 169.1 49.8999 169.3 49.7999C169.9 49.2999 170.4 48.6999 170.9 48.0999C175.4 43.3999 177.8 38.9999 177.9 35.3999C178.3 34.2999 178.1 33.1999 177.6 32.1999ZM170.6 47.5999C170.1 48.0999 169.7 48.5999 169.2 48.9999C169.1 49.0999 169 49.1999 168.8 49.2999C168.7 49.3999 168.5 49.5999 168.4 49.6999C167.3 50.6999 166.2 51.6999 165 52.6999C164.9 52.7999 164.7 52.8999 164.6 52.9999C164.5 53.0999 164.3 53.1999 164.2 53.2999C163.2 54.0999 162.1 54.8999 161 55.6999C160.6 55.9999 160.2 56.2999 159.8 56.5999C158.8 57.2999 157.9 57.8999 156.8 58.5999C156.3 58.8999 155.8 59.1999 155.4 59.4999C154.8 59.8999 154.1 60.2999 153.4 60.6999C153.1 60.8999 152.8 61.0999 152.4 61.2999C150.3 62.4999 148.1 63.5999 145.9 64.6999C142.5 66.2999 139.2 67.6999 135.9 68.8999C135.7 68.9999 135.5 68.9999 135.4 69.0999C135.2 69.1999 135.1 69.1999 134.9 69.2999C134.5 69.3999 134.1 69.5999 133.7 69.6999C133.5 69.7999 133.2 69.8999 133 69.8999C132.7 69.9999 132.5 70.0999 132.2 70.1999C128.9 71.1999 125.8 72.0999 122.8 72.5999C122.6 72.5999 122.4 72.6999 122.3 72.6999C122.1 72.6999 122 72.6999 121.8 72.7999C120.3 73.0999 118.7 73.2999 117.3 73.3999C116.6 73.4999 116 73.4999 115.4 73.4999C115.2 73.4999 115 73.4999 114.9 73.4999C114.7 73.4999 114.6 73.4999 114.4 73.4999C107.8 73.5999 103.4 71.9999 101.8 68.7999C100.7 66.5999 101.1 63.6999 102.8 60.3999C103 59.8999 103.3 59.4999 103.6 58.9999C104.2 58.0999 104.9 57.1999 105.6 56.1999C105.7 55.9999 105.9 55.8999 106 55.6999C106.1 55.4999 106.3 55.3999 106.5 55.1999C106.7 54.8999 107 54.6999 107.2 54.3999C107.4 54.1999 107.6 53.8999 107.8 53.6999C108 53.4999 108.2 53.2999 108.4 53.0999C114.2 47.1999 122.7 41.2999 132.5 36.5999C137.4 34.1999 142.4 32.1999 147.2 30.7999C150.9 29.6999 154.5 28.7999 157.8 28.2999C158 28.2999 158.2 28.1999 158.5 28.1999C158.7 28.1999 158.9 28.0999 159.1 28.0999C159.8 27.9999 160.5 27.8999 161.2 27.8999C162.5 27.7999 163.7 27.6999 164.9 27.6999C171.1 27.6999 175.3 29.2999 176.8 32.3999C177.2 33.1999 177.4 34.0999 177.4 35.0999C177.3 38.5999 175.1 42.7999 170.6 47.5999ZM122.7 72.6999C122.5 72.6999 122.3 72.7999 122.2 72.7999C122 72.7999 121.9 72.7999 121.7 72.8999C120.2 73.1999 118.6 73.3999 117.2 73.4999C116.5 73.5999 115.9 73.5999 115.3 73.5999C115.3 73.7999 115.3 73.8999 115.4 74.0999C115.8 74.0999 116.2 74.0999 116.6 73.9999C116.9 73.9999 117.3 73.9999 117.6 73.8999C117.8 73.8999 117.9 73.8999 118.1 73.8999C118.4 73.8999 118.7 73.7999 119.1 73.7999C119.5 73.6999 119.9 73.6999 120.4 73.5999C120.4 73.5999 120.4 73.5999 120.5 73.5999C120.9 73.4999 121.3 73.4999 121.6 73.3999C121.7 73.3999 121.8 73.3999 121.9 73.3999C122 73.3999 122.2 73.3999 122.4 73.2999C122.6 73.2999 122.8 73.1999 122.9 73.1999C123.2 73.0999 123.6 73.0999 124 72.9999C124.3 72.9999 124.6 72.8999 124.9 72.7999C125.5 72.6999 126.2 72.4999 126.8 72.3999C127.3 72.2999 127.9 72.0999 128.4 71.9999C128.5 71.9999 128.6 71.9999 128.7 71.8999C129.2 71.7999 129.6 71.5999 130.1 71.4999H130.2C130.8 71.2999 131.3 71.1999 131.9 70.9999C132.1 70.7999 132.2 70.4999 132.4 70.2999C128.9 71.2999 125.7 72.0999 122.7 72.6999Z" fill="#1E1E1E"/>
<path d="M125.1 96.8999L61.8 104.2L46.5 144.6L128.3 147.4L125.1 96.8999Z" fill="#4CAF50"/>
<path d="M255.1 139C255.1 148.4 253.9 157.5 251.6 166.3L210.1 153L183.8 144.5L190 96H190.1L254.1 124.8C254.8 129.5 255.1 134.2 255.1 139Z" fill="#4CAF50"/>
<path d="M144.3 98.1C138.7 98.6 118.3 100.5 113.1 102.9C95.3 110.9 109.4 225 107 225.4C107.6 225.3 213.2 215.3 213.2 215.3C209.1 175.2 217 145.7 194.5 100.5C188.1 87.6 158.4 96.7 144.3 98.1Z" fill="#4CAF50"/>
<path d="M141.1 104.9C141.1 104.9 144.4 132.9 159.5 129.3C174.6 125.7 167.4 100.6 167.4 100.6L141.1 104.9Z" fill="#1E1E1E"/>
<path d="M167.9 100.4C167.8 100.2 167.8 100.2 167.7 100.1C167.6 100 167.5 100 167.4 100H167.3L166.8 100.1L146 103.6L145.3 103.7L144.7 103.8L142.5 104.2L141.3 104.4L140.9 104.5H140.8C140.7 104.5 140.6 104.6 140.6 104.7C140.5 104.8 140.5 104.9 140.5 105V105.1C140.6 105.5 140.7 106.7 141 108.3C141 108.5 141.1 108.7 141.1 108.8C141.1 109 141.2 109.2 141.2 109.4C142.4 115 145.2 124.2 150.9 128.2C152.6 129.4 154.7 130.1 156.8 130.1C157.7 130.1 158.6 130 159.5 129.8C161.1 129.5 162.5 128.8 163.8 127.8C165.1 126.8 166.2 125.6 167 124.2C172.2 115.6 168.1 101 167.9 100.4ZM163.4 127C162.2 127.9 160.9 128.5 159.4 128.8C158.1 129.2 156.7 129.2 155.3 129C154 128.8 152.7 128.2 151.6 127.4C146.1 123.5 143.4 114.1 142.3 108.7C142.2 108.5 142.2 108.3 142.2 108.1C142.2 107.9 142.1 107.7 142.1 107.5C142 107.1 142 106.7 141.9 106.4C141.8 106.1 141.8 105.8 141.8 105.5C141.8 105.4 141.8 105.3 141.8 105.2L142.2 105.1L144.2 104.8L144.8 104.7L145.5 104.6L167 101C167.1 101.5 167.4 102.4 167.6 103.6C167.7 104 167.8 104.5 167.9 105C168.8 110 169.4 118.2 166.3 123.6C165.6 125 164.6 126.1 163.4 127Z" fill="#1E1E1E"/>
<path d="M201.2 147.5C201.1 147.5 201 147.5 200.9 147.4C200.8 147.3 200.7 147.2 200.7 147.1L189.9 108C189.9 107.9 189.9 107.9 189.9 107.8C189.9 107.7 189.9 107.7 190 107.6C190 107.5 190.1 107.5 190.1 107.4C190.2 107.4 190.2 107.3 190.3 107.3C190.4 107.3 190.4 107.3 190.5 107.3C190.6 107.3 190.6 107.3 190.7 107.4C190.8 107.4 190.8 107.5 190.9 107.5C190.9 107.6 191 107.6 191 107.7L201.8 146.8C201.8 146.9 201.8 146.9 201.8 147C201.8 147.1 201.8 147.1 201.7 147.2C201.7 147.3 201.6 147.3 201.6 147.3C201.5 147.3 201.5 147.4 201.4 147.4C201.3 147.5 201.2 147.5 201.2 147.5Z" fill="#1E1E1E"/>
<path d="M112.9 157C112.8 157 112.7 157 112.6 156.9C112.5 156.8 112.4 156.7 112.4 156.6L106.7 119.6C106.7 119.5 106.7 119.5 106.7 119.4C106.7 119.3 106.7 119.3 106.8 119.2C106.8 119.1 106.9 119.1 106.9 119.1C107 119.1 107 119 107.1 119C107.2 119 107.4 119 107.5 119.1C107.6 119.2 107.7 119.3 107.7 119.4L113.4 156.4C113.4 156.5 113.4 156.5 113.4 156.6C113.4 156.7 113.4 156.7 113.3 156.8C113.3 156.9 113.2 156.9 113.2 156.9C113.1 156.9 113 157 112.9 157Z" fill="#1E1E1E"/>
<path d="M186 72.4999C184.6 68.6999 181.2 65.9999 178.3 63.1999C171.7 56.6999 168.8 48.4999 164 40.8999C162.5 38.4999 160.6 36.2999 158.4 34.3999C152 35.6999 144.1 37.4999 137.9 40.2999C118.5 48.8999 113.1 59.0999 112.9 59.2999C113.7 69.6999 116.7 86.5999 120 96.4999C121.5 101.2 123.4 107.5 128.8 109.3C130.3 109.8 128.2 108.2 129.7 107.8C135 106.3 140.6 105 145.6 102.5C150.2 100.2 153.7 96.4999 158.2 94.0999C161.2 92.4999 164.3 92.2999 167.5 92.0999C168.2 92.0999 168.8 91.9999 169.4 91.8999C174.3 91.3999 179.2 89.5999 182.6 86.0999C186 82.5999 187.7 77.0999 186 72.4999Z" fill="#1E1E1E"/>
<path d="M113.4 59.2999C113.5 58.9999 113.8 58.6999 114.1 58.1999C114.5 57.5999 115.1 56.8999 115.8 55.9999C115.1 56.5999 114.5 57.0999 113.9 57.6999C113.2 58.5999 112.9 59.1999 112.9 59.1999C112.9 59.1999 112.9 59.1999 112.9 59.2999C112.9 59.4999 112.9 59.6999 112.9 59.8999C113 60.8999 113.1 61.8999 113.2 62.9999C113.5 65.6999 113.9 68.5999 114.4 71.6999C114.5 72.0999 114.5 72.4999 114.6 72.9999C114.6 73.1999 114.7 73.3999 114.7 73.5999C114.9 73.5999 115.1 73.5999 115.2 73.5999C114.3 68.3999 113.7 63.3999 113.4 59.4999C113.5 59.3999 113.4 59.3999 113.4 59.2999ZM113.4 59.2999C113.5 58.9999 113.8 58.6999 114.1 58.1999C114.5 57.5999 115.1 56.8999 115.8 55.9999C115.1 56.5999 114.5 57.0999 113.9 57.6999C113.2 58.5999 112.9 59.1999 112.9 59.1999C112.9 59.1999 112.9 59.1999 112.9 59.2999C112.9 59.4999 112.9 59.6999 112.9 59.8999C113 60.8999 113.1 61.8999 113.2 62.9999C113.5 65.6999 113.9 68.5999 114.4 71.6999C114.5 72.0999 114.5 72.4999 114.6 72.9999C114.6 73.1999 114.7 73.3999 114.7 73.5999C114.9 73.5999 115.1 73.5999 115.2 73.5999C114.3 68.3999 113.7 63.3999 113.4 59.4999C113.5 59.3999 113.4 59.3999 113.4 59.2999ZM186.5 72.3999C185.3 69.1999 182.7 66.7999 180.3 64.3999C179.8 63.8999 179.2 63.3999 178.7 62.8999C174.8 59.0999 172.3 54.6999 169.7 49.9999C169.6 49.8999 169.5 49.6999 169.5 49.5999C169.4 49.3999 169.3 49.2999 169.2 49.0999C169 48.7999 168.9 48.4999 168.7 48.1999C167.4 45.6999 166 43.0999 164.4 40.5999C162.8 38.0999 160.9 35.8999 158.7 33.9999C158.6 33.9999 158.6 33.8999 158.5 33.8999C158.4 33.8999 158.4 33.8999 158.3 33.8999C152.7 34.9999 144.7 36.7999 138.4 39.4999C138.2 39.5999 138 39.6999 137.7 39.7999C137.1 40.0999 136.6 40.2999 136 40.5999C135.1 40.9999 134.3 41.3999 133.5 41.7999C127.2 44.9999 122.6 48.2999 119.4 51.1999C115.4 54.6999 113.4 57.5999 112.6 58.8999C112.5 58.8999 112.5 58.9999 112.5 59.0999C112.5 59.0999 112.5 59.0999 112.5 59.1999C112.5 59.1999 112.5 59.2999 112.5 59.3999C112.5 59.5999 112.5 59.6999 112.5 59.8999C112.5 60.0999 112.5 60.2999 112.6 60.4999C112.9 64.2999 113.5 68.8999 114.3 73.6999C114.3 73.8999 114.4 73.9999 114.4 74.1999C114.4 74.3999 114.4 74.4999 114.5 74.6999C115.4 79.8999 116.5 85.2999 117.7 90.0999C118.3 92.3999 118.9 94.6999 119.6 96.5999L119.8 97.1999C119.8 97.2999 119.9 97.3999 119.9 97.4999C120.3 98.5999 120.7 99.7999 121.1 100.9C122.1 103.4 123.3 105.8 125.2 107.6C125.4 107.8 125.6 108 125.9 108.2C126.3 108.5 126.7 108.8 127.2 109C127.7 109.3 128.2 109.5 128.7 109.6C128.9 109.7 129.1 109.7 129.3 109.7C129.4 109.7 129.5 109.7 129.6 109.7C129.7 109.7 129.8 109.6 129.8 109.5C129.9 109.4 129.9 109.2 129.9 109C129.9 108.8 129.9 108.7 129.8 108.5C129.7 108.4 129.7 108.2 129.7 108.1C129.8 108.1 129.8 108 129.9 108L132.4 107.3C135.2 106.6 137.9 105.8 140.6 104.8C140.7 104.8 140.9 104.7 141.1 104.6C141.3 104.5 141.4 104.5 141.6 104.4C142 104.3 142.3 104.1 142.7 104C143.5 103.7 144.4 103.3 145.2 102.9C145.4 102.8 145.6 102.7 145.8 102.6C146.1 102.5 146.3 102.3 146.5 102.2C148.6 101 150.6 99.6999 152.5 98.1999C153.4 97.4999 154.3 96.7999 155.2 96.1999C155.7 95.8999 156.1 95.5999 156.6 95.2999C156.8 95.1999 157 95.0999 157.1 94.9999C157.2 94.8999 157.4 94.7999 157.6 94.6999C157.8 94.4999 158.1 94.3999 158.3 94.2999C160.3 93.1999 162.4 92.7999 164.5 92.5999C164.7 92.5999 164.8 92.5999 165 92.5999C165.2 92.5999 165.3 92.5999 165.5 92.4999C165.5 92.4999 165.5 92.4999 165.6 92.4999C166 92.4999 166.5 92.3999 166.9 92.3999H167.4C168 92.3999 168.7 92.2999 169.4 92.1999C173.3 91.7999 178.9 90.3999 182.9 86.2999C186.7 82.4999 188.2 76.8999 186.5 72.3999ZM166.9 91.4999C166.4 91.4999 165.8 91.5999 165.3 91.5999C165.1 91.5999 165 91.5999 164.8 91.5999C164.6 91.5999 164.5 91.5999 164.3 91.5999C162.2 91.7999 160.1 92.2999 158 93.3999C157.5 93.6999 157.1 93.8999 156.6 94.1999C156.4 94.2999 156.3 94.3999 156.1 94.4999C155.9 94.5999 155.8 94.6999 155.6 94.7999C154.7 95.3999 153.8 95.9999 153 96.5999C152.7 96.7999 152.3 97.0999 152 97.3999C150.4 98.6999 148.7 99.8999 146.9 100.9C146.7 101 146.5 101.2 146.2 101.3C146 101.4 145.8 101.5 145.6 101.6C145.5 101.6 145.4 101.7 145.3 101.8C143.9 102.4 142.6 103 141.2 103.5C141 103.6 140.9 103.6 140.7 103.7C140.5 103.8 140.4 103.8 140.2 103.9C137.5 104.9 134.8 105.7 132.1 106.4L129.6 107.1C129.4 107.1 129.3 107.2 129.1 107.3C128.9 107.4 128.8 107.5 128.7 107.7C128.6 108 128.6 108.2 128.6 108.5C127.5 108.1 126.5 107.4 125.7 106.7C124.4 105.5 123.5 103.9 122.7 102.3C122.5 101.9 122.3 101.5 122.2 101.1C122.2 101 122.1 100.9 122.1 100.7C121.6 99.5999 121.3 98.3999 120.9 97.2999C120.8 97.0999 120.8 96.8999 120.7 96.7999L120.5 96.1999C119.9 94.2999 119.3 92.1999 118.7 89.8999C117.5 85.0999 116.4 79.6999 115.5 74.4999C115.5 74.2999 115.4 74.1999 115.4 73.9999C115.4 73.7999 115.3 73.5999 115.3 73.4999C114.4 68.2999 113.8 63.2999 113.5 59.3999C113.5 59.2999 113.5 59.2999 113.5 59.1999C113.7 58.8999 113.9 58.5999 114.2 58.1999C114.6 57.5999 115.2 56.8999 115.9 55.9999C118.2 53.3999 122 49.6999 128.1 45.8999C129.1 45.1999 130.3 44.5999 131.4 43.8999C132.3 43.3999 133.2 42.8999 134.2 42.3999C135.4 41.7999 136.7 41.1999 138.1 40.5999C144.3 37.8999 152.5 35.9999 158.2 34.7999C160.3 36.5999 162.1 38.6999 163.5 40.9999C165 43.3999 166.4 45.9999 167.7 48.4999C167.9 48.8999 168.1 49.2999 168.3 49.6999C168.4 49.8999 168.5 49.9999 168.6 50.1999C168.7 50.3999 168.8 50.4999 168.8 50.6999C171.3 55.1999 173.9 59.6999 177.8 63.5999C178.3 64.1999 178.9 64.6999 179.5 65.1999C181.9 67.4999 184.3 69.6999 185.5 72.7999C187.1 76.9999 185.7 82.1999 182.2 85.7999C178.3 89.6999 173 90.9999 169.3 91.3999C168.7 91.4999 168 91.5999 167.4 91.5999H166.9V91.4999ZM113.4 59.2999C113.5 58.9999 113.8 58.6999 114.1 58.1999C114.5 57.5999 115.1 56.8999 115.8 55.9999C115.1 56.5999 114.5 57.0999 113.9 57.6999C113.2 58.5999 112.9 59.1999 112.9 59.1999C112.9 59.1999 112.9 59.1999 112.9 59.2999C112.9 59.4999 112.9 59.6999 112.9 59.8999C113 60.8999 113.1 61.8999 113.2 62.9999C113.5 65.6999 113.9 68.5999 114.4 71.6999C114.5 72.0999 114.5 72.4999 114.6 72.9999C114.6 73.1999 114.7 73.3999 114.7 73.5999C114.9 73.5999 115.1 73.5999 115.2 73.5999C114.3 68.3999 113.7 63.3999 113.4 59.4999C113.5 59.3999 113.4 59.3999 113.4 59.2999Z" fill="#1E1E1E"/>
<path d="M160.7 46.8999C160.7 46.8999 169.2 58.3999 169.8 68.7999C170.1 71.6999 169.5 74.5999 168.1 77.1999C166.7 79.7999 164.7 81.8999 162.1 83.2999L167.3 100.6C167.3 100.6 170 109.4 158.8 111.3C155.5 111.8 152.2 111.5 149.1 110.4C146 109.3 143.2 107.4 141 104.9L130.3 73.4999C130.3 73.4999 140.5 62.6999 136 51.5999C136 51.5999 152.7 54.2999 160.7 46.8999Z" fill="#F5F5F5"/>
<path d="M136 88.6L135.7 87.9001L133.7 82.1L133.5 81.6L133.4 81.2001L130.8 73.5C131.1 73.1 131.8 72.3 132.7 71.1C132.8 70.9 133 70.7 133.1 70.5C133.2 70.3 133.4 70 133.6 69.8C133.8 69.5 134 69.2 134.2 68.8C134.1 68.7 134 68.6 133.9 68.5C133.6 69 133.3 69.4001 133.1 69.9001C133.1 70.0001 133 70 133 70.1C132.7 70.2 132.5 70.3001 132.2 70.4001C132 70.7001 131.9 70.9 131.7 71.1C131.5 71.3 131.4 71.6 131.2 71.8C130.5 72.7 130 73.3 130 73.3C129.9 73.4 129.9 73.5 129.9 73.5C129.9 73.6 129.9 73.7 129.9 73.8L132.5 81.4001C132.7 81.4001 132.9 81.4001 133 81.4001L133.2 81.8L133.4 82.3001L135.2 87.7L135.4 88.4001L135.6 89.1C135.8 89.2 136.1 89.3 136.3 89.5L136 88.6ZM136 88.6L135.7 87.9001L133.7 82.1L133.5 81.6L133.4 81.2001L130.8 73.5C131.1 73.1 131.8 72.3 132.7 71.1C132.8 70.9 133 70.7 133.1 70.5C133.2 70.3 133.4 70 133.6 69.8C133.8 69.5 134 69.2 134.2 68.8C134.1 68.7 134 68.6 133.9 68.5C133.6 69 133.3 69.4001 133.1 69.9001C133.1 70.0001 133 70 133 70.1C132.7 70.2 132.5 70.3001 132.2 70.4001C132 70.7001 131.9 70.9 131.7 71.1C131.5 71.3 131.4 71.6 131.2 71.8C130.5 72.7 130 73.3 130 73.3C129.9 73.4 129.9 73.5 129.9 73.5C129.9 73.6 129.9 73.7 129.9 73.8L132.5 81.4001C132.7 81.4001 132.9 81.4001 133 81.4001L133.2 81.8L133.4 82.3001L135.2 87.7L135.4 88.4001L135.6 89.1C135.8 89.2 136.1 89.3 136.3 89.5L136 88.6ZM168.7 77.2001C170 74.6001 170.6 71.7001 170.4 68.7001C170.1 63.4001 167.7 57.8 165.5 53.6C165.4 53.5 165.4 53.3001 165.3 53.2001C165.2 53.0001 165.1 52.9001 165 52.7001C163 49.1001 161.3 46.7 161.1 46.5C161.1 46.4 161 46.4 160.9 46.4C160.8 46.4 160.8 46.4 160.7 46.3C160.6 46.3 160.4 46.3 160.3 46.4C152.6 53.6 136.2 51 136 51C135.9 51 135.8 51 135.7 51C135.6 51 135.5 51.1001 135.5 51.2001C135.4 51.3001 135.4 51.3001 135.4 51.4001C135.4 51.5001 135.4 51.6001 135.4 51.7001C137.7 57.4001 136 63 133.9 67C133.8 67.2 133.7 67.3 133.6 67.5C133.5 67.7 133.4 67.8 133.3 68C132.8 68.8 132.4 69.5001 131.9 70.2001C131.7 70.5001 131.6 70.7001 131.4 70.9001C131.2 71.1001 131.1 71.4 130.9 71.6C130.2 72.5 129.7 73.1 129.7 73.1C129.6 73.2 129.6 73.3 129.6 73.3C129.6 73.4 129.6 73.5 129.6 73.6L132.2 81.2001L132.4 81.7001L132.6 82.2L134.3 87.3001L134.5 88L134.7 88.7L138.2 98.8001L140 104.1L140.2 104.6L140.3 105V105.1C140.3 105.1 140.3 105.2 140.4 105.2C140.6 105.4 140.8 105.6 141 105.8C141.2 106 141.4 106.2 141.6 106.4C141.8 106.6 142 106.8 142.3 107C142.4 107.1 142.5 107.2 142.7 107.3C142.8 107.4 143 107.5 143.1 107.6C144.4 108.6 145.7 109.4 147.2 110.1C149.8 111.3 152.6 111.9 155.4 111.9C156.5 111.9 157.7 111.8 158.8 111.6C162.7 110.9 165.4 109.4 166.9 107C167.3 106.3 167.6 105.6 167.8 104.9C167.9 104.5 168 104.1 168 103.7C168 103.7 168 103.7 168 103.6C168.1 102.5 168 101.3 167.7 100.2V100.1L166.6 96.4001L166 94.4001L165.4 92.4001L165.3 91.9001L165.1 91.3001L162.7 83.2C165.3 82 167.3 79.8001 168.7 77.2001ZM166.9 100.7C166.9 100.9 167 101 167 101.2C167.4 103.1 167.1 105 166.1 106.7C164.8 108.8 162.3 110.2 158.8 110.8C155.6 111.3 152.4 111 149.4 110C147.4 109.3 145.6 108.3 144 107C143.9 106.9 143.7 106.8 143.6 106.7C143.5 106.6 143.3 106.5 143.2 106.4C142.8 106.1 142.5 105.7 142.1 105.4C142 105.2 141.8 105.1 141.7 104.9C141.6 104.8 141.6 104.8 141.5 104.7L141.4 104.5V104.3L141.2 103.7L139.5 98.7L136.3 89.4001L136.1 88.7L135.8 88L133.8 82.2L133.6 81.7001L133.5 81.3L130.9 73.6C131.2 73.2 131.9 72.4001 132.8 71.2001C132.9 71.0001 133.1 70.8 133.2 70.6C133.3 70.4 133.5 70.1001 133.7 69.9001C133.9 69.6001 134.1 69.3001 134.3 68.9001C134.4 68.7001 134.5 68.6001 134.6 68.4001C134.7 68.2001 134.8 68.1001 134.9 67.9001C137.1 63.8001 138.9 58.1 136.9 52.3C140.4 52.8 153.5 53.9001 160.8 47.7001C161.4 48.6001 162.8 50.7 164.4 53.5C164.5 53.6 164.6 53.8 164.7 54C164.8 54.1 164.9 54.3001 164.9 54.4001C167.1 58.5001 169.3 63.8001 169.6 68.9001C169.9 71.7001 169.3 74.5 168 77C166.7 79.5 164.7 81.5001 162.2 82.9001C162.2 82.9001 162.1 82.9 162.1 83C162.1 83 162 83.1 162 83.2C162 83.3 161.9 83.4 162 83.5V83.6L163 86.8001L164.5 91.9001L164.7 92.5L164.8 93L165.4 95L165.9 96.5L166 97L166.2 97.5L167.1 100.4L166.9 100.7ZM136 88.6L135.7 87.9001L133.7 82.1L133.5 81.6L133.4 81.2001L130.8 73.5C131.1 73.1 131.8 72.3 132.7 71.1C132.8 70.9 133 70.7 133.1 70.5C133.2 70.3 133.4 70 133.6 69.8C133.8 69.5 134 69.2 134.2 68.8C134.1 68.7 134 68.6 133.9 68.5C133.6 69 133.3 69.4001 133.1 69.9001C133.1 70.0001 133 70 133 70.1C132.7 70.2 132.5 70.3001 132.2 70.4001C132 70.7001 131.9 70.9 131.7 71.1C131.5 71.3 131.4 71.6 131.2 71.8C130.5 72.7 130 73.3 130 73.3C129.9 73.4 129.9 73.5 129.9 73.5C129.9 73.6 129.9 73.7 129.9 73.8L132.5 81.4001C132.7 81.4001 132.9 81.4001 133 81.4001L133.2 81.8L133.4 82.3001L135.2 87.7L135.4 88.4001L135.6 89.1C135.8 89.2 136.1 89.3 136.3 89.5L136 88.6Z" fill="#1E1E1E"/>
<path d="M135.6 69.4C135.6 69.4 126.6 59 122.9 68.4C119.1 77.7999 130.4 83.4999 135.6 81.0999V69.4Z" fill="#F5F5F5"/>
<path d="M132.9 82.2001C129.8 82.1001 126.9 80.9001 124.7 78.8001C123.3 77.5001 122.3 75.8001 121.9 73.9001C121.5 72.0001 121.7 70.0001 122.5 68.3001C123.5 65.8001 124.9 64.4001 126.8 64.1001C131.1 63.4001 135.9 68.9001 136.1 69.2001C136.2 69.3001 136.2 69.4001 136.2 69.6001C136.2 69.7001 136.1 69.9001 136 69.9001C136 69.9001 135.9 70.0001 135.8 70.0001C135.7 70.0001 135.7 70.0001 135.6 70.0001C135.5 70.0001 135.5 70.0001 135.4 70.0001C135.3 70.0001 135.3 69.9001 135.2 69.9001C135.2 69.8001 130.6 64.6001 126.8 65.2001C125.3 65.4001 124.2 66.6001 123.3 68.8001C122.6 70.4001 122.4 72.1001 122.7 73.8001C123.1 75.5001 123.9 77.0001 125.2 78.2001C128 80.9001 132.5 82.1001 135.2 80.9001C135.3 80.8001 135.5 80.8001 135.6 80.9001C135.7 80.9001 135.8 81.0001 135.9 81.2001C135.9 81.3001 135.9 81.3001 135.9 81.4001C135.9 81.5001 135.9 81.5001 135.9 81.6001C135.9 81.7001 135.8 81.7001 135.8 81.8001C135.8 81.8001 135.7 81.9001 135.6 81.9001C134.9 82.0001 133.9 82.2001 132.9 82.2001Z" fill="#1E1E1E"/>
<path d="M153.7 70.6C153.6 70.6 153.4 70.5 153.3 70.5C153.2 70.4 153.1 70.3 153.1 70.2C153.1 70.1 153.1 69.9 153.2 69.8C153.3 69.7 153.4 69.6 153.6 69.6C153.6 69.6 157.3 69.5 158.8 68.1C158.8 68.1 158.8 68.1 158.8 68C158.8 68 158.8 68 158.8 67.9C158.7 66.5 154.1 62.6 151.1 60.4C151 60.3 150.9 60.2 150.9 60.1C150.9 60 150.9 59.8 151 59.7C151 59.6 151.1 59.6 151.1 59.6C151.2 59.6 151.2 59.5 151.3 59.5C151.4 59.5 151.4 59.5 151.5 59.5C151.6 59.5 151.6 59.5 151.7 59.6C153 60.6 159.6 65.5 159.8 67.8C159.8 68 159.8 68.1 159.7 68.3C159.6 68.5 159.5 68.6 159.4 68.7C157.8 70.4 153.9 70.6 153.7 70.6Z" fill="#1E1E1E"/>
<path d="M162.2 83.3C162.2 83.3 153.3 87.2 147.6 87.5C147.6 87.5 157.5 99.4 166.2 96.6L162.2 83.3Z" fill="#1E1E1E"/>
<path d="M166.7 96.5L166.1 94.7L165.5 92.7L165.3 92.2L165.1 91.6L162.6 83.5L162.5 83.1C162.5 83.1 162.5 83 162.4 83C162.4 83 162.4 83 162.4 82.9C162.4 82.9 162.3 82.8 162.2 82.8C162.1 82.8 162.1 82.8 162 82.8C161.9 82.8 161.9 82.8 161.8 82.8C161.8 82.8 161.8 82.8 161.7 82.9C160.5 83.4 152.6 86.8 147.4 87C147.3 87 147.2 87 147.1 87.1C147 87.1 147 87.2 146.9 87.3C146.9 87.4 146.9 87.5 146.9 87.6C146.9 87.7 146.9 87.8 147 87.9C147.3 88.2 150.7 92.3 155.4 95.1C155.6 95.2 155.8 95.3 155.9 95.4C156 95.5 156.2 95.6 156.4 95.7C156.7 95.9 157 96 157.4 96.2C159.3 97.1 161.3 97.7 163.4 97.7C164.2 97.7 165 97.6 165.8 97.4C166 97.4 166.1 97.3 166.3 97.3C166.3 97.3 166.3 97.3 166.4 97.3C166.5 97.3 166.6 97.2 166.7 97C166.7 96.9 166.7 96.9 166.7 96.8C166.8 96.6 166.8 96.5 166.7 96.5ZM159.4 95.7C158.8 95.5 158.2 95.2 157.6 94.9C157.4 94.8 157.3 94.7 157.1 94.6C156.9 94.5 156.7 94.4 156.5 94.3C152.9 92.2 149.9 89.2 148.6 87.8C153.5 87.3 159.9 84.7 161.8 83.9L162.6 86.6L164.1 91.7L164.3 92.3L164.4 92.8L165 94.8L165.4 96.3C163.5 96.8 161.4 96.4 159.4 95.7Z" fill="#1E1E1E"/>
<path d="M145.6 64.8001C146.3 64.5001 146.5 63.3001 146.1 62.0001C145.6 60.7001 144.7 59.9001 143.9 60.1001C143.2 60.4001 142.9 61.6001 143.4 62.9001C143.9 64.2001 144.8 65.0001 145.6 64.8001Z" fill="#1E1E1E"/>
<path d="M118.1 90.2C120.8 100.5 126.1 119.3 140.6 109.4C143.6 107.3 145.7 104.1 146.5 100.5C147.8 94 136.9 88.8 131.8 86.5L118.1 90.2Z" fill="#1E1E1E"/>
<path d="M133 112.7C132 112.7 130.9 112.5 130 112.2C122.6 109.4 119.4 97 117.7 90.4C117.7 90.3 117.7 90.1 117.8 90C117.9 89.9 118 89.8 118.1 89.8C118.2 89.8 118.4 89.8 118.5 89.9C118.6 90 118.7 90.1 118.7 90.2C120.3 96.2 123.5 108.8 130.4 111.3C133.3 112.4 136.6 111.6 140.4 109.1C143.3 107.1 145.3 104 146.1 100.6C147.2 94 135.4 88.7 131.5 87C131.4 86.9 131.3 86.8 131.2 86.7C131.2 86.6 131.2 86.4 131.2 86.3C131.2 86.2 131.3 86.2 131.3 86.1C131.3 86.1 131.4 86 131.5 86C131.6 86 131.6 86 131.7 86C131.8 86 131.8 86 131.9 86C139 89.2 148.2 94.1 146.9 100.6C146.1 104.3 144 107.6 140.8 109.8C138.6 111.5 135.8 112.5 133 112.7Z" fill="#1E1E1E"/>
<path d="M162 72.9001C162 72.9001 161.9 72.8 161.8 72.8C161.7 72.8 161.7 72.8 161.6 72.8H145.5C145.4 72.8 145.2 72.8001 145.2 72.9001C145.1 73.0001 145 73.1001 145 73.2001C145 73.3001 144.5 79.1 151.9 80.5C152.6 80.6 153.4 80.7001 154.2 80.7001C156.1 80.7001 158 80.1001 159.4 78.9001C160.2 78.2001 160.9 77.3001 161.4 76.4001C161.9 75.4001 162.1 74.4 162.2 73.3C162.2 73.1 162.1 73.0001 162 72.9001ZM158.9 78.2001C158 78.9001 156.9 79.4 155.7 79.6C154.6 79.8 153.4 79.8 152.2 79.5C146.8 78.5 146.2 75.1 146.1 73.8H161.2C161 75.5 160.2 77.1001 158.9 78.2001Z" fill="#1E1E1E"/>
<path d="M155.8 59.9999C155.7 59.9999 155.7 59.9999 155.6 59.9999C155.5 59.9999 155.4 59.8999 155.3 59.6999C155.2 59.5999 155.2 59.3999 155.3 59.2999C155.8 57.8999 156.8 56.6999 158.2 55.9999C158.8 55.7999 159.4 55.5999 160 55.6999C160.6 55.6999 161.3 55.8999 161.8 56.1999C161.9 56.2999 162 56.3999 162 56.4999C162 56.5999 162 56.6999 162 56.8999C161.9 56.9999 161.9 57.0999 161.7 57.1999C161.6 57.2999 161.5 57.2999 161.3 57.1999C160.9 56.9999 160.4 56.7999 159.9 56.7999C159.4 56.7999 158.9 56.8999 158.5 56.9999C157.4 57.5999 156.6 58.5999 156.2 59.6999C156.2 59.7999 156.1 59.8999 156 59.8999C156 59.8999 155.9 59.9999 155.8 59.9999Z" fill="#1E1E1E"/>
<path d="M57.7 144.1C46.2 151.4 31.8 137.4 38 119.1C44.2 100.8 87.7 56.9001 87.7 56.9001C87.7 56.9001 83.9999 46.6001 87.2999 42.7001C90.5999 38.8001 97 40.9001 97 40.9001C97 40.9001 100.8 24.2001 104.1 25.4001C107.4 26.6001 101.9 42.7001 101.9 42.7001C101.9 42.7001 110.8 25.0001 113.1 28.4001C115.4 31.8001 106.5 44.9001 106.5 44.9001C106.5 44.9001 111.9 44.2001 108.6 51.8001C106.5 56.5001 103 60.4001 98.5999 63.0001C98.5999 63.0001 69.2 136.7 57.7 144.1Z" fill="#F5F5F5"/>
<path d="M105.9 55.7999C105.9 55.6999 105.9 55.4999 105.8 55.3999C105.7 55.5999 105.5 55.7999 105.4 55.9999C104.8 56.8999 104.1 57.6999 103.3 58.4999C102.8 58.9999 102.4 59.3999 101.9 59.8999C100.8 60.8999 99.5999 61.7999 98.2999 62.5999C98.1999 62.6999 98.0999 62.7999 98.0999 62.8999C97.9999 63.2999 90.2999 82.2999 81.3999 101.9L81.9999 101.8V101.7C82.3999 100.8 82.7999 99.8999 83.1999 98.9999C83.2999 98.6999 83.4999 98.3999 83.5999 98.0999C83.9999 97.1999 84.3999 96.2999 84.7999 95.3999C85.0999 94.7999 85.2999 94.1999 85.5999 93.5999C86.0999 92.3999 86.5999 91.2999 87.0999 90.0999C87.3999 89.4999 87.5999 88.9999 87.7999 88.3999C87.8999 88.0999 88.0999 87.7999 88.1999 87.4999C88.3999 86.8999 88.6999 86.3999 88.8999 85.7999C89.1999 85.1999 89.3999 84.5999 89.6999 83.9999C89.8999 83.4999 90.0999 82.9999 90.2999 82.5999C90.4999 82.0999 90.7999 81.5999 90.9999 80.9999C91.4999 79.9999 91.9999 78.9999 92.3999 77.9999C92.5999 77.4999 92.7999 76.8999 93.0999 76.3999C93.1999 76.2999 93.1999 76.0999 93.2999 75.9999C93.5999 75.1999 93.9999 74.3999 94.2999 73.6999C94.3999 73.4999 94.4999 73.2999 94.5999 73.0999C94.6999 72.8999 94.6999 72.7999 94.7999 72.5999C94.8999 72.3999 94.8999 72.2999 94.9999 72.0999C95.2999 71.2999 95.5999 70.5999 95.8999 69.9999C96.2999 69.0999 96.5999 68.2999 96.8999 67.4999V67.3999C97.0999 66.9999 97.1999 66.4999 97.3999 66.1999C97.4999 65.8999 97.5999 65.6999 97.6999 65.4999C97.7999 65.2999 97.8999 65.0999 97.9999 64.8999C97.9999 64.8999 97.9999 64.8999 97.9999 64.7999C98.0999 64.6999 98.0999 64.5999 98.0999 64.4999C98.1999 64.2999 98.2999 64.0999 98.2999 63.8999C98.2999 63.7999 98.3999 63.6999 98.3999 63.5999C98.4999 63.2999 98.5999 63.1999 98.5999 63.0999C98.9999 62.8999 99.2999 62.6999 99.6999 62.3999C100.1 62.1999 100.4 61.8999 100.7 61.6999C100.8 61.5999 100.9 61.4999 101 61.3999C101.1 61.2999 101.2 61.1999 101.3 61.0999C101.6 60.7999 102 60.5999 102.3 60.2999C102.4 60.1999 102.6 60.0999 102.7 59.8999C102.7 59.8999 102.7 59.8999 102.8 59.8999C103 59.6999 103.2 59.4999 103.4 59.2999C104.2 58.5999 104.9 57.7999 105.5 56.8999C105.6 56.6999 105.8 56.4999 105.9 56.2999C106 56.0999 106 55.9999 105.9 55.7999ZM105.9 55.7999C105.9 55.6999 105.9 55.4999 105.8 55.3999C105.7 55.5999 105.5 55.7999 105.4 55.9999C104.8 56.8999 104.1 57.6999 103.3 58.4999C102.8 58.9999 102.4 59.3999 101.9 59.8999C100.8 60.8999 99.5999 61.7999 98.2999 62.5999C98.1999 62.6999 98.0999 62.7999 98.0999 62.8999C97.9999 63.2999 90.2999 82.2999 81.3999 101.9L81.9999 101.8V101.7C82.3999 100.8 82.7999 99.8999 83.1999 98.9999C83.2999 98.6999 83.4999 98.3999 83.5999 98.0999C83.9999 97.1999 84.3999 96.2999 84.7999 95.3999C85.0999 94.7999 85.2999 94.1999 85.5999 93.5999C86.0999 92.3999 86.5999 91.2999 87.0999 90.0999C87.3999 89.4999 87.5999 88.9999 87.7999 88.3999C87.8999 88.0999 88.0999 87.7999 88.1999 87.4999C88.3999 86.8999 88.6999 86.3999 88.8999 85.7999C89.1999 85.1999 89.3999 84.5999 89.6999 83.9999C89.8999 83.4999 90.0999 82.9999 90.2999 82.5999C90.4999 82.0999 90.7999 81.5999 90.9999 80.9999C91.4999 79.9999 91.9999 78.9999 92.3999 77.9999C92.5999 77.4999 92.7999 76.8999 93.0999 76.3999C93.1999 76.2999 93.1999 76.0999 93.2999 75.9999C93.5999 75.1999 93.9999 74.3999 94.2999 73.6999C94.3999 73.4999 94.4999 73.2999 94.5999 73.0999C94.6999 72.8999 94.6999 72.7999 94.7999 72.5999C94.8999 72.3999 94.8999 72.2999 94.9999 72.0999C95.2999 71.2999 95.5999 70.5999 95.8999 69.9999C96.2999 69.0999 96.5999 68.2999 96.8999 67.4999V67.3999C97.0999 66.9999 97.1999 66.4999 97.3999 66.1999C97.4999 65.8999 97.5999 65.6999 97.6999 65.4999C97.7999 65.2999 97.8999 65.0999 97.9999 64.8999C97.9999 64.8999 97.9999 64.8999 97.9999 64.7999C97.9999 64.6999 98.0999 64.5999 98.0999 64.4999C98.1999 64.2999 98.2999 64.0999 98.2999 63.8999C98.2999 63.7999 98.3999 63.6999 98.3999 63.5999C98.4999 63.2999 98.5999 63.1999 98.5999 63.0999C98.9999 62.8999 99.2999 62.6999 99.6999 62.3999C100.1 62.1999 100.4 61.8999 100.7 61.6999C100.8 61.5999 100.9 61.4999 101 61.3999C101.1 61.2999 101.2 61.1999 101.3 61.0999C101.6 60.7999 102 60.5999 102.3 60.2999C102.4 60.1999 102.6 60.0999 102.7 59.8999C102.7 59.8999 102.7 59.8999 102.8 59.8999C103 59.6999 103.2 59.4999 103.4 59.2999C104.2 58.5999 104.9 57.7999 105.5 56.8999C105.6 56.6999 105.8 56.4999 105.9 56.2999C106 56.0999 106 55.9999 105.9 55.7999ZM113.9 29.8999C113.9 29.6999 113.9 29.4999 113.9 29.2999C113.9 29.0999 113.8 28.8999 113.8 28.7999C113.7 28.4999 113.6 28.2999 113.5 28.0999C113.4 27.8999 113.2 27.6999 113 27.5999C112.8 27.4999 112.5 27.3999 112.3 27.4999C110.1 27.5999 106.5 33.2999 104 37.7999C105.4 32.6999 106.8 25.8999 104.3 24.9999C104.1 24.8999 103.8 24.8999 103.6 24.8999C103.4 24.8999 103.1 24.9999 102.9 25.0999C99.9999 26.6999 97.2999 37.4999 96.5999 40.2999C94.8999 39.7999 89.8999 38.8999 86.9999 42.2999C85.3999 44.0999 85.2999 47.2999 85.6999 50.1999C86.0999 53.0999 86.8999 55.7999 87.1999 56.6999C84.1999 59.7999 57.0999 87.2999 43.8999 107C40.8999 111.5 38.5999 115.5 37.4999 118.8C34.6999 126.9 35.9999 134.1 39.0999 139.1C40.1999 140.9 41.5999 142.5 42.9999 143.6C45.2999 145.5 48.1999 146.5 51.0999 146.6C53.1999 146.6 55.2999 146 57.0999 144.9C57.3999 144.8 57.5999 144.6 57.8999 144.4C63.5999 140.7 73.6999 120.9 82.4999 101.7C90.5999 83.7999 97.5999 66.5999 98.7999 63.2999C99.5999 62.8999 100.3 62.3999 101 61.8999C101.3 61.6999 101.6 61.4999 101.9 61.1999C102.2 60.9999 102.5 60.6999 102.7 60.4999C103.8 59.4999 104.8 58.4999 105.7 57.2999C105.9 57.0999 106 56.8999 106.1 56.7999C106.2 56.5999 106.4 56.3999 106.5 56.1999C107.1 55.2999 107.7 54.2999 108.3 53.2999C108.5 52.8999 108.7 52.3999 108.9 51.9999C109.1 51.5999 109.2 51.1999 109.4 50.8999C110.3 48.4999 110.3 46.6999 109.4 45.5999C108.9 44.9999 108.2 44.4999 107.4 44.4999C108.3 43.0999 110.1 40.0999 111.6 37.0999C112.9 34.3999 113.9 31.7999 113.9 29.8999ZM106.2 44.3999C106.1 44.4999 106.1 44.5999 106 44.6999C105.9 44.7999 105.9 44.8999 105.9 44.9999C105.9 45.0999 105.9 45.1999 106 45.2999C106.1 45.3999 106.1 45.4999 106.2 45.4999C106.2 45.4999 106.2 45.4999 106.3 45.4999H106.4C106.4 45.4999 106.4 45.4999 106.5 45.4999H106.6C107 45.4999 107.3 45.4999 107.7 45.5999C108.1 45.6999 108.4 45.9999 108.7 46.1999C109.4 47.1999 109.2 48.9999 108.1 51.6999C108 51.9999 107.8 52.2999 107.6 52.6999C107.3 53.2999 106.9 53.8999 106.6 54.5999C106.5 54.6999 106.5 54.7999 106.4 54.8999C106.3 55.0999 106.1 55.2999 106 55.4999C105.9 55.6999 105.7 55.8999 105.6 56.0999C105 56.9999 104.3 57.7999 103.5 58.5999C103 59.0999 102.6 59.4999 102.1 59.9999C101 60.9999 99.7999 61.8999 98.4999 62.6999C98.3999 62.7999 98.2999 62.8999 98.2999 62.9999C98.1999 63.3999 90.4999 82.3999 81.5999 102C72.9999 120.9 63.1999 140.3 57.6999 143.8C56.8999 144.3 56.1999 144.7 55.2999 145C53.7999 145.5 52.2999 145.8 50.6999 145.7C49.2999 145.6 47.9999 145.3 46.7999 144.7C45.7999 144.3 44.7999 143.7 43.9999 142.9C42.1999 141.5 40.5999 139.5 39.4999 137.1C37.1999 132.5 36.4999 126.3 38.8999 119.3C39.6999 116.8 41.2999 113.9 43.2999 110.6C55.5999 89.9999 87.7999 57.5999 88.0999 57.1999C88.1999 57.0999 88.1999 57.0999 88.1999 56.8999C88.1999 56.7999 88.1999 56.6999 88.1999 56.5999C88.1999 56.4999 86.9999 52.9999 86.5999 49.3999C86.2999 46.8999 86.4999 44.2999 87.7999 42.8999C88.4999 42.1999 89.2999 41.5999 90.1999 41.1999C91.0999 40.7999 92.0999 40.6999 93.0999 40.6999C94.3999 40.6999 95.5999 40.8999 96.7999 41.1999C96.8999 41.1999 96.8999 41.1999 96.9999 41.1999C97.0999 41.1999 97.0999 41.1999 97.1999 41.1999C97.2999 41.1999 97.2999 41.0999 97.3999 41.0999C97.4999 40.9999 97.4999 40.9999 97.4999 40.8999C98.2999 37.0999 101 27.0999 103.4 25.8999C103.5 25.7999 103.6 25.7999 103.7 25.7999C103.8 25.7999 103.9 25.7999 104 25.7999C105.1 26.0999 105.2 31.0999 102 40.7999C101.8 41.2999 101.6 41.8999 101.4 42.4999C101.4 42.5999 101.4 42.5999 101.4 42.6999C101.4 42.7999 101.4 42.7999 101.4 42.8999C101.4 42.9999 101.5 42.9999 101.5 43.0999C101.5 43.0999 101.6 43.1999 101.7 43.1999C101.8 43.1999 102 43.1999 102.1 43.1999C102.2 43.1999 102.3 43.0999 102.4 42.9999C102.9 42.0999 103.4 41.0999 103.9 40.0999C106.7 34.7999 110.6 28.5999 112.3 28.5999C112.4 28.5999 112.5 28.5999 112.6 28.7999C112.7 28.9999 112.8 29.1999 112.8 29.4999C112.8 29.6999 112.9 29.8999 112.8 30.0999C112.8 30.2999 112.8 30.4999 112.8 30.6999C112.6 32.4999 111.5 35.0999 110.2 37.5999C108.9 40.0999 107.2 42.7999 106.2 44.3999ZM105.9 55.7999C105.9 55.6999 105.9 55.4999 105.8 55.3999C105.7 55.5999 105.5 55.7999 105.4 55.9999C104.8 56.8999 104.1 57.6999 103.3 58.4999C102.8 58.9999 102.4 59.3999 101.9 59.8999C100.8 60.8999 99.5999 61.7999 98.2999 62.5999C98.1999 62.6999 98.0999 62.7999 98.0999 62.8999C97.9999 63.2999 90.2999 82.2999 81.3999 101.9L81.9999 101.8V101.7C82.3999 100.8 82.7999 99.8999 83.1999 98.9999C83.2999 98.6999 83.4999 98.3999 83.5999 98.0999C83.9999 97.1999 84.3999 96.2999 84.7999 95.3999C85.0999 94.7999 85.2999 94.1999 85.5999 93.5999C86.0999 92.3999 86.5999 91.2999 87.0999 90.0999C87.3999 89.4999 87.5999 88.9999 87.7999 88.3999C87.8999 88.0999 88.0999 87.7999 88.1999 87.4999C88.3999 86.8999 88.6999 86.3999 88.8999 85.7999C89.1999 85.1999 89.3999 84.5999 89.6999 83.9999C89.8999 83.4999 90.0999 82.9999 90.2999 82.5999C90.4999 82.0999 90.7999 81.5999 90.9999 80.9999C91.4999 79.9999 91.9999 78.9999 92.3999 77.9999C92.5999 77.4999 92.7999 76.8999 93.0999 76.3999C93.1999 76.2999 93.1999 76.0999 93.2999 75.9999C93.5999 75.1999 93.9999 74.3999 94.2999 73.6999C94.3999 73.4999 94.4999 73.2999 94.5999 73.0999C94.6999 72.8999 94.6999 72.7999 94.7999 72.5999C94.8999 72.3999 94.8999 72.2999 94.9999 72.0999C95.2999 71.2999 95.5999 70.5999 95.8999 69.9999C96.2999 69.0999 96.5999 68.2999 96.8999 67.4999V67.3999C97.0999 66.9999 97.1999 66.4999 97.3999 66.1999C97.4999 65.8999 97.5999 65.6999 97.6999 65.4999C97.7999 65.2999 97.8999 65.0999 97.9999 64.8999C97.9999 64.8999 97.9999 64.8999 97.9999 64.7999C98.0999 64.6999 98.0999 64.5999 98.0999 64.4999C98.1999 64.2999 98.2999 64.0999 98.2999 63.8999C98.2999 63.7999 98.3999 63.6999 98.3999 63.5999C98.4999 63.2999 98.5999 63.1999 98.5999 63.0999C98.9999 62.8999 99.2999 62.6999 99.6999 62.3999C100.1 62.1999 100.4 61.8999 100.7 61.6999C100.8 61.5999 100.9 61.4999 101 61.3999C101.1 61.2999 101.2 61.1999 101.3 61.0999C101.6 60.7999 102 60.5999 102.3 60.2999C102.4 60.1999 102.6 60.0999 102.7 59.8999C102.7 59.8999 102.7 59.8999 102.8 59.8999C103 59.6999 103.2 59.4999 103.4 59.2999C104.2 58.5999 104.9 57.7999 105.5 56.8999C105.6 56.6999 105.8 56.4999 105.9 56.2999C106 56.0999 106 55.9999 105.9 55.7999Z" fill="#1E1E1E"/>
<path d="M94 55.3999C93.8 55.3999 93.7 55.2999 93.6 55.1999C93.5 55.0999 93.5 54.9999 93.5 54.7999C93.6 53.9999 93.8 53.2999 94.3 52.5999C94.7 51.8999 95.3 51.3999 95.9 50.8999C96.8 50.2999 97.9 49.9999 98.9 49.8999C97.6 49.1999 96.4 48.3999 95.3 47.3999C94.6 46.7999 94.3 46.1999 94.6 45.5999C95.5 43.5999 104 44.1999 106.5 44.3999C106.6 44.3999 106.6 44.3999 106.7 44.4999C106.8 44.4999 106.8 44.5999 106.9 44.5999C106.9 44.6999 107 44.6999 107 44.7999C107 44.8999 107 44.8999 107 44.9999C107 45.0999 107 45.0999 106.9 45.1999C106.9 45.2999 106.8 45.2999 106.8 45.3999C106.7 45.3999 106.7 45.4999 106.6 45.4999C106.5 45.4999 106.5 45.4999 106.4 45.4999C100.8 44.9999 95.8 45.2999 95.5 46.0999C95.5 46.0999 95.5 46.2999 96 46.6999C97.7 48.2999 99.7 49.3999 101.9 49.9999C102.5 50.0999 102.9 50.1999 103 50.1999C103.1 50.1999 103.2 50.2999 103.3 50.3999C103.4 50.4999 103.4 50.5999 103.4 50.7999C103.4 50.8999 103.3 50.9999 103.2 51.0999C103.1 51.1999 103 51.1999 102.9 51.1999C102.5 51.1999 102.1 51.0999 101.8 50.9999C100 50.6999 98.1 50.8999 96.5 51.7999C96 52.1999 95.5 52.5999 95.2 53.1999C94.9 53.7999 94.7 54.3999 94.6 54.9999C94.6 55.0999 94.5 55.1999 94.4 55.2999C94.2 55.2999 94.1 55.3999 94 55.3999Z" fill="#1E1E1E"/>
</g>
<path d="M253.809 34C253.191 38.7222 249.636 42.3426 245 43.1296C249.327 43.6019 253.036 46.75 254.273 51C254.273 51 255.2 42.6574 262 42.5C262 42.5 254.118 40.9259 253.809 34Z" fill="#FFC107"/>
<path d="M16.1013 102C16.1013 102 15.048 114.985 0 118.119C7.82495 119.015 14.4461 124.537 16.8537 132C16.8537 132 18.509 117.075 30.9988 116.925C31.1493 117.075 16.5528 114.388 16.1013 102Z" fill="#FFC107"/>
<path d="M90.8448 0C90.8448 0 87.0782 7.8386 77 6.3116C81.6828 8.7548 84.4314 13.743 84.126 19.0366C84.126 19.0366 88.707 10.0782 96.4438 12.9286C96.4438 12.9286 88.0962 7.7368 90.8448 0Z" fill="#FFC107"/>
<defs>
<clipPath id="clip0_56_229">
<rect width="223" height="232" fill="white" transform="translate(36 18)"/>
</clipPath>
</defs>
</svg>
