<svg width="492" height="166" viewBox="0 0 492 166" fill="none" xmlns="http://www.w3.org/2000/svg">
<path d="M129.8 124.2C129.8 124.2 129.7 116.9 152.4 104.8C175.1 92.7 209.4 95.9 221.4 103.1C233.4 110.3 239.3 111.7 244.2 127.6C247.2 137.7 248.8 148.1 248.9 158.6H126L129.8 124.2Z" fill="#4CAF50"/>
<path d="M172.9 137.1C175.6 139.3 187.7 141.5 190.5 140.8C197.9 138.9 205.7 136.3 210.3 129.8C212.9 126.2 214.1 121.7 215.1 117.3C216.2 112.2 217.1 106.7 215.7 101.7C210.7 84.7001 184.5 82.9001 171.4 89.8001C152.5 99.8001 159.7 126.1 172.9 137.1Z" fill="#1C411D"/>
<path d="M188.9 141.6C184.3 141.6 174.9 139.6 172.5 137.6C163.8 130.3 158.2 117.2 159.4 106.5C160 99.1001 164.4 92.6001 171 89.2001C180 84.4001 193.7 84.0001 203.6 88.2001C210.2 91.0001 214.6 95.6001 216.3 101.5C217.8 106.7 216.9 112.2 215.8 117.5C214.9 121.6 213.7 126.4 210.9 130.2C206.3 136.7 198.5 139.4 190.7 141.4C190.1 141.6 189.5 141.7 188.9 141.6ZM173.4 136.6C175.8 138.6 187.6 140.8 190.3 140.1C197.8 138.2 205.4 135.5 209.7 129.4C212.3 125.7 213.5 121.2 214.3 117.2C215.4 112.1 216.3 106.7 214.9 101.9C213.3 96.4001 209.2 92.1001 203 89.4001C193.6 85.4001 180.2 85.9001 171.6 90.4001C165.4 93.5001 161.3 99.7001 160.7 106.6C159.6 117 165 129.6 173.4 136.6Z" fill="#1E1E1E"/>
<path d="M179.5 26.8002C166.8 29.0002 155.4 36.7002 155.6 50.9002C155.8 59.6002 160.4 67.7002 167 73.4002C176.6 81.8002 190.7 85.1002 202.5 80.4002C212.5 76.4002 220.1 66.4002 220.7 55.6002C221.2 47.0002 217.4 33.0002 208.4 29.9002C205 28.7002 200.7 31.4002 200.7 31.4002C198.9 26.5002 184.8 25.9002 179.5 26.8002Z" fill="#1E1E1E"/>
<path d="M191.1 83.2001C182.1 83.2001 173.4 79.9001 166.5 74.0001C159.3 67.7001 155.1 59.3001 154.9 51.0001C154.7 38.2001 163.8 29.0001 179.3 26.2001C184.6 25.3001 198.1 25.8001 200.8 30.6001C202.2 29.9001 205.5 28.4001 208.4 29.4001C217.5 32.5001 221.7 46.7001 221.2 55.8001C220.6 66.7001 213 77.1001 202.6 81.2001C199 82.6001 195 83.3001 191.1 83.2001ZM184.6 27.1001C182.9 27.1001 181.2 27.2001 179.5 27.5001C164.7 30.1001 155.9 38.9001 156.1 51.0001C156.2 59.0001 160.3 67.0001 167.2 73.1001C176.9 81.6001 191 84.4001 202.1 80.0001C212 76.1001 219.3 66.1001 219.9 55.7001C220.4 47.1001 216.5 33.6001 208 30.6001C204.9 29.5001 200.9 32.1001 200.8 32.1001C200.6 32.2001 200.4 32.2001 200.2 32.2001C200 32.1001 199.9 32.0001 199.8 31.8001C198.9 28.3001 190.8 27.1001 184.6 27.1001Z" fill="#1E1E1E"/>
<path d="M202 94L202.1 112.5C202.1 112.5 200.2 122.9 188.9 119.7C182.2 117.7 176.6 112.9 173.9 106.4C173.9 106.4 173 67.3 172.7 55.5C186.4 55.3 201.5 46.5 201.5 46.5C201.5 46.5 206.2 53.6 208.3 55.8C209.9 57.5 211.4 59.4 212.5 61.4C214.4 65 214.3 69.4 214.2 73.4C214.2 78.1 213.7 82.8 212.8 87.4C211.1 96.2 202 94 202 94Z" fill="white"/>
<path d="M192.9 121C191.5 121 190.1 120.8 188.7 120.4C181.7 118.4 176.1 113.4 173.3 106.7C173.3 106.6 173.3 106.6 173.3 106.5C173.3 106.1 172.4 67.3 172.1 55.6C172.1 55.4 172.2 55.3 172.3 55.1C172.4 55 172.6 54.8999 172.7 54.8999C186.1 54.6999 201 45.9999 201.2 45.8999C201.5 45.6999 201.9 45.8 202.1 46.1C202.1 46.2 206.8 53.2 208.8 55.3C210.5 57 211.9 58.9 213.1 61C215.1 64.8 215 69.5 214.9 73.3C214.9 78 214.4 82.6999 213.5 87.3999C213.1 89.7999 211.8 91.8999 209.7 93.2999C207.5 94.4999 205 95 202.5 94.6L202.6 112.4C202 115.3 200.4 117.8 198 119.4C196.6 120.5 194.8 121 192.9 121ZM174.6 106.3C177.3 112.5 182.6 117.2 189.1 119.1C192.5 120 195.2 119.8 197.4 118.5C199.4 117 200.9 114.9 201.4 112.4L201.3 94C201.3 93.8 201.4 93.6 201.5 93.5C201.7 93.4 201.9 93.2999 202 93.3999C202 93.3999 206 94.2999 209 92.3999C210.7 91.1999 211.9 89.4 212.2 87.3C213.1 82.7 213.5 78.0999 213.6 73.3999C213.7 69.5999 213.8 65.2 211.9 61.7C210.8 59.7 209.4 57.9 207.8 56.2C206 54.3 202.4 49 201.3 47.3C198.5 48.8 185.5 55.7 173.3 56.1C173.7 68.3 174.5 104.1 174.6 106.3Z" fill="#1E1E1E"/>
<path d="M201.9 103.1C201.9 103.1 194.4 103.4 189.5 98.4C184.6 93.4 185.4 88.3 185.4 88.3C185.4 88.3 193.5 93.8 202 94L201.9 103.1Z" fill="#1E1E1E"/>
<path d="M201.5 103.8C199.9 103.8 193.4 103.5 189 98.9001C184 93.7001 184.7 88.5001 184.7 88.3001C184.7 88.1001 184.9 87.9001 185.1 87.8001C185.3 87.7001 185.5 87.7001 185.7 87.9001C185.8 87.9001 193.8 93.3001 202 93.4001C202.3 93.4001 202.6 93.7001 202.6 94.0001L202.5 103.1C202.5 103.4 202.2 103.7 201.9 103.7L201.5 103.8ZM186 89.5001C186.2 92.7001 187.7 95.8001 190 98.0001C193.8 102 199.5 102.5 201.3 102.5L201.4 94.6001C194.6 94.3001 188.3 90.9001 186 89.5001Z" fill="#1E1E1E"/>
<path d="M194.7 64.4001C194.7 64.4001 200.7 73.3001 199.3 74.9001C197.9 76.5001 193.9 75.4001 193.9 75.4001" fill="white"/>
<path d="M196.5 76.4C195.6 76.4 194.6 76.3 193.7 76C193.4 75.9 193.2 75.6 193.3 75.2C193.4 74.9 193.7 74.7 194 74.8C194.9 75 197.8 75.5 198.8 74.5C199.4 73.9 197.2 69.3 194.2 64.8C194 64.6 193.9 64.2 194.2 63.9C194.4 63.7 194.8 63.6 195.1 63.9C195.2 64 195.2 64 195.2 64.1C197.1 66.9 201.3 73.6 199.7 75.3C198.8 76.1 197.7 76.5 196.5 76.4Z" fill="#1E1E1E"/>
<path d="M202.567 63.4938C203.119 63.4721 203.533 62.6046 203.491 61.5561C203.45 60.5076 202.969 59.6751 202.418 59.6968C201.866 59.7185 201.452 60.5861 201.493 61.6346C201.534 62.6831 202.015 63.5155 202.567 63.4938Z" fill="#1E1E1E"/>
<path d="M186.324 61.1591C186.355 60.1102 185.933 59.2466 185.381 59.2302C184.829 59.2138 184.356 60.0509 184.325 61.0998C184.294 62.1487 184.716 63.0123 185.268 63.0287C185.82 63.0451 186.293 62.208 186.324 61.1591Z" fill="#1E1E1E"/>
<path d="M176.6 67.7001C174.6 64.9001 171.6 59.9001 167.5 61.4001C166.4 61.8001 165.5 62.6001 164.7 63.5001C161.4 67.4001 161.9 72.6001 164.1 76.9001C166 80.6001 171.9 86.2001 175.9 81.5001" fill="white"/>
<path d="M172.3 83.9C172.1 83.9 171.9 83.9 171.7 83.9C168 83.5 164.7 79.5001 163.5 77.2001C160.9 72.0001 161.1 66.7001 164.2 63.1001C165 62.1001 166 61.3001 167.2 60.8001C171.4 59.2001 174.6 63.7001 176.6 66.6001L177.1 67.3001C177.3 67.6001 177.2 68.0001 177 68.2001C176.7 68.4001 176.3 68.3001 176.1 68.1001L175.6 67.4C173.7 64.6 171 60.8001 167.7 62.0001C166.7 62.4001 165.8 63 165.2 63.9C162.5 67.1 162.3 71.9001 164.7 76.6001C165.9 78.9001 168.8 82.3001 171.9 82.6001C173.3 82.8001 174.6 82.2001 175.5 81.1001C175.7 80.8001 176.1 80.8001 176.4 81.0001C176.7 81.2001 176.7 81.6 176.5 81.9C175.3 83.2 173.8 83.9 172.3 83.9Z" fill="#1E1E1E"/>
<path d="M195.4 85.1001C195.1 85.1001 194.7 85.1001 194.4 85.0001C188.5 84.3001 184.4 78.3001 184.2 78.0001C184.1 77.7001 184.2 77.3001 184.5 77.2001C184.7 77.1001 185 77.2001 185.2 77.3001C185.2 77.4001 189.2 83.2001 194.5 83.8001C197.1 84.1001 199.7 83.1001 202.1 80.8001C202.3 80.6001 202.7 80.5001 203 80.8001C203.2 81.0001 203.3 81.4001 203 81.7001C203 81.7001 203 81.7001 202.9 81.7001C201 83.8001 198.3 85.0001 195.4 85.1001Z" fill="#1E1E1E"/>
<path d="M149.9 159.3C149.5 159.3 149.2 159 149.2 158.6V129.5C149.2 129.1 149.5 128.8 149.9 128.8C150.3 128.8 150.6 129.1 150.6 129.5V158.6C150.6 159 150.3 159.3 149.9 159.3Z" fill="#1E1E1E"/>
<path d="M223.9 159.4C223.6 159.4 223.3 159.2 223.2 158.8L217.5 128.5C217.4 128.1 217.7 127.8 218.1 127.7C218.5 127.6 218.8 127.9 218.9 128.3L224.6 158.6C224.7 159 224.4 159.3 224 159.4H223.9Z" fill="#1E1E1E"/>
<path d="M189.3 117.5C189.3 117.5 173.6 134.1 174.4 150.4L200.8 153.4C200.8 153.4 196 124.6 199 117.4L189.3 117.5Z" fill="#1C411D"/>
<path d="M200.8 154.1L174.3 151.1C174 151.1 173.7 150.8 173.7 150.4C172.9 134 188.1 117.7 188.8 117C188.9 116.9 189.1 116.8 189.3 116.8L199 116.6C199.2 116.6 199.5 116.7 199.6 116.9C199.7 117.1 199.8 117.3 199.7 117.6C196.8 124.6 201.5 153 201.6 153.3C201.7 153.7 201.4 154 201 154.1C200.9 154.1 200.8 154.1 200.8 154.1ZM175.1 149.7L200 152.6C199.2 147.8 195.9 125.8 198 118.1L189.6 118.2C187.8 120.2 174.7 135.1 175.1 149.7Z" fill="#1E1E1E"/>
<path d="M187.6 136.1H187.5C187.1 136.1 186.9 135.7 186.9 135.3C187.7 129.8 189.8 124.6 193 120C193.2 119.7 193.7 119.6 194 119.9C194.3 120.1 194.4 120.6 194.1 120.9C191 125.3 189.1 130.3 188.3 135.5C188.2 135.9 187.9 136.1 187.6 136.1Z" fill="#D1D3D4"/>
<path d="M203.3 123.4C203.2 123.4 203.1 123.4 203 123.4C202.6 123.2 202.5 122.8 202.6 122.5C204.1 119.3 205.2 116 206.1 112.7C207 109.4 206.9 105.9 205.9 102.6C205.8 102.2 206 101.8 206.3 101.7C206.7 101.6 207.1 101.8 207.2 102.1C208.3 105.6 208.3 109.4 207.4 112.9C206.5 116.4 205.3 119.7 203.8 123C203.8 123.3 203.5 123.4 203.3 123.4Z" fill="#D1D3D4"/>
<path d="M187.8 67.2001H179.9C177.1 67.2001 174.9 65.0001 174.9 62.2001V56.8001C174.9 56.4001 175.2 56.1001 175.6 56.1001H192.1C192.5 56.1001 192.8 56.4001 192.8 56.8001V62.2001C192.8 64.9001 190.6 67.2001 187.8 67.2001ZM176.3 57.5001V62.2001C176.3 64.2001 177.9 65.8001 179.9 65.8001H187.8C189.8 65.8001 191.4 64.2001 191.4 62.2001V57.5001H176.3Z" fill="#1E1E1E"/>
<path d="M207.4 67.2001H199.5C196.7 67.2001 194.5 65.0001 194.5 62.2001V56.8001C194.5 56.4001 194.8 56.1001 195.2 56.1001H211.7C212.1 56.1001 212.4 56.4001 212.4 56.8001V62.2001C212.4 64.9001 210.2 67.2001 207.4 67.2001ZM195.9 57.5001V62.2001C195.9 64.2001 197.5 65.8001 199.5 65.8001H207.4C209.4 65.8001 211 64.2001 211 62.2001V57.5001H195.9Z" fill="#1E1E1E"/>
<path d="M199.5 57.5001H190.9C190.5 57.5001 190.2 57.2001 190.2 56.8001C190.2 56.4001 190.5 56.1001 190.9 56.1001H199.5C199.9 56.1001 200.2 56.4001 200.2 56.8001C200.2 57.2001 199.9 57.5001 199.5 57.5001Z" fill="#1E1E1E"/>
<path d="M67.4001 96.6998C67.4001 96.6998 42.9 97.4998 33.3 115.2C23.7 132.9 23.3 158.7 23.3 158.7H135C135 158.7 122.5 116.2 105.7 106.1C88.9 95.9998 67.4001 96.6998 67.4001 96.6998Z" fill="#4CAF50"/>
<path d="M40.2 152C40.1 152 40 152 39.9 151.9C39.6 151.7 39.4 151.3 39.6 151C40.1 150 45.7 129.8 49.3 116.5C49.4 116.1 49.8 115.9 50.2 116C50.6 116.1 50.8 116.5 50.7 116.8C49.7 120.2 41.4 150.4 40.9 151.5C40.8 151.8 40.5 152 40.2 152Z" fill="#1E1E1E"/>
<path d="M80.6001 33.8998C80.6001 33.8998 86.8001 18.1998 70.9001 14.1998C55.0001 10.1998 40.4001 20.6998 42.2001 34.6998C44.0001 48.6998 54.7001 48.9998 54.7001 48.9998L80.6001 33.8998Z" fill="black"/>
<path d="M54.7 49.6999C54.6 49.6999 43.4 49.2999 41.5 34.7999C40.6 28.6999 42.9 22.5999 47.6 18.5999C53.6 13.2999 62.3 11.3999 71 13.4999C75.8 14.6999 79.2 17.0999 81 20.5999C84.1 26.6999 81.4 33.7999 81.3 34.1999C81.2 34.2999 81.1 34.4999 81 34.5999L55.1 49.6999C55 49.5999 54.8 49.6999 54.7 49.6999ZM63.9 14.0999C58.2 13.9999 52.8 15.9999 48.5 19.6999C44.2 23.3999 42 29.0999 42.8 34.6999C44.5 47.0999 53.1 48.1999 54.5 48.2999L80 33.3999C80.4 32.1999 82.3 26.1999 79.7 21.1999C78.1 18.0999 75 15.9999 70.6 14.8999C68.5 14.2999 66.2 14.0999 63.9 14.0999Z" fill="#1E1E1E"/>
<path d="M57.3 35.4999C59.7 33.9999 62.3 32.9999 65 32.4999C72.5 30.9999 81.1 32.2999 86.3 37.8999C83.8 35.9999 80.4 37.4999 77.4 38.4999C74.8 39.3999 72.1 39.7999 69.5 40.5999C66 41.6999 62.8 43.3999 59.9 45.5999C58.2 46.8999 54.2 52.5999 52.2 52.4999C48.5 52.1999 50.1 45.7999 50.8 43.8999C52.1 40.3999 54.3 37.4999 57.3 35.4999Z" fill="#FFC107"/>
<path d="M52.5 53.1999H52.4C51.5 53.1999 50.6 52.6999 50.1 51.8999C48.4 49.3999 50.2 44.2 50.4 43.6C51.6 40 53.9 36.9999 57 34.8999C59.4 33.3999 62.2 32.2999 65 31.7999C71.8 30.3999 81.1 31.1999 87 37.3999C87.3 37.6999 87.3 38.0999 87 38.3999C86.7 38.6999 86.3 38.6999 86 38.3999C84 36.8999 81.2 37.8999 78.5 38.7999L77.7 39.1C76.3 39.6 74.8 39.9999 73.4 40.2999C72.2 40.5999 71 40.8999 69.9 41.1999C66.5 42.2999 63.3 43.9 60.5 46.1C59.7 46.8 58.9 47.5999 58.2 48.4999C55.8 51.2999 54 53.1999 52.5 53.1999ZM70.8 32.6999C68.9 32.6999 67 32.8999 65.2 33.2999C62.6 33.7999 60 34.6999 57.7 36.1999C54.9 38.0999 52.7 40.8999 51.7 44.1999C51 46.1999 50.3 49.7999 51.3 51.1999C51.6 51.5999 52 51.8999 52.5 51.8999C53.4 51.8999 55.8 49.2999 57.2 47.7999C58 46.7999 58.8 45.9999 59.7 45.1999C62.6 42.8999 66 41.2 69.5 40.1C70.7 39.7 71.9 39.4 73.1 39.1C74.5 38.8 75.9 38.3999 77.3 37.8999L78.1 37.6999C79.8 36.9999 81.6 36.5999 83.5 36.3999C79.6 33.7999 75.2 32.5999 70.8 32.6999Z" fill="#1E1E1E"/>
<path d="M96.6001 38.9999C88.1001 34.2999 76.7001 33.4999 67.4001 36.2999C58.1001 39.0999 52.2001 46.6999 50.0001 56.0999C48.5001 62.5999 47.3001 72.4999 52.6001 77.2999C58.4001 82.5999 65.3001 85.3999 73.1001 86.6999C81.1001 87.8999 91.0001 87.7999 97.6001 82.5999C104.2 77.3999 108.6 68.1999 108.8 60.0999C109.2 49.9999 104 43.0999 96.6001 38.9999Z" fill="black"/>
<path d="M81 87.9999C78.3 87.9999 75.6 87.7999 73 87.3999C64.5 86.0999 57.7 82.9999 52.1 77.8999C46.7 72.9999 47.6 63.2999 49.3 55.9999C51.7 45.7999 58.2 38.2999 67.2 35.6999C76.9 32.7999 88.6 33.8999 96.9 38.4999C105.3 43.0999 109.8 50.7999 109.5 60.0999C109.2 68.5999 104.5 78.0999 98 83.1999C93.2 86.9999 86.7 87.9999 81 87.9999ZM78.6 35.3999C74.9 35.3999 71.2 35.8999 67.6 36.8999C59 39.4999 53 46.2999 50.7 56.1999C49.4 61.8999 47.9 72.0999 53.1 76.6999C58.5 81.5999 65.1 84.5999 73.3 85.8999C79.2 86.7999 90.1 87.4999 97.3 81.8999C103.5 77.0999 108 67.9999 108.2 59.8999C108.6 48.6999 101.9 42.5999 96.3 39.4999C90.8 36.7999 84.7 35.2999 78.6 35.3999Z" fill="#1E1E1E"/>
<path d="M88.9001 95.7999L90.1001 112.7C90.1001 112.7 88.5001 120.6 77.0001 118.7C65.5001 116.8 63.2001 109.2 63.2001 109.2L62.1001 77.5999C62.1001 77.5999 79.0001 66.7999 75.1001 48.8999C75.1001 48.8999 83.1001 58.6999 99.6001 55.1999C99.6001 55.1999 101.1 75.2999 100.5 84.0999C99.9001 93.0999 88.9001 95.7999 88.9001 95.7999Z" fill="white"/>
<path d="M80.2 119.7C79.1 119.7 78 119.6 76.9 119.4C65.1 117.5 62.7 109.8 62.6 109.5C62.6 109.4 62.6 109.4 62.6 109.3L61.5 77.7C61.5 77.5 61.6 77.2 61.8 77.1C62 77 78.3 66.3 74.5 49.1C74.4 48.7 74.7 48.3 75 48.3C75.3 48.2 75.5 48.3 75.7 48.5C75.8 48.6 83.6 57.9 99.6 54.6C99.8 54.6 100 54.6 100.2 54.7C100.4 54.8 100.5 55 100.5 55.2C100.5 55.4 102 75.5 101.4 84.3C100.8 92.4 92.2 95.6 89.8 96.3L91 112.6C91 112.7 91 112.7 91 112.8C90.8 112.9 89.3 119.7 80.2 119.7ZM63.9 109.2C64.2 110 66.7 116.4 77.1 118.1C87.2 119.7 89.2 113.5 89.4 112.7L88.2 95.9C88.2 95.6 88.4 95.3 88.7 95.2C88.8 95.2 99.2 92.5 99.8 84.3C100.4 76.6 99.3 60 99 56.2C86.7 58.5 79.2 53.7 76.2 51.1C78.2 66.6 65.1 76.6 62.8 78.2L63.9 109.2Z" fill="#1E1E1E"/>
<path d="M67.4001 76.4C66.9001 74.9 65.9001 73.6 64.6001 72.7C63.3001 71.9 61.9001 71.3 60.5001 71C59.7001 70.7 58.9001 70.7 58.1001 70.8C57.5001 70.9 57.0001 71.2 56.6001 71.5C55.4001 72.2 54.5001 73.3 54.1001 74.6C53.9001 75.7 53.9001 76.8 54.2001 77.8C54.4001 79 54.8001 80.1 55.3001 81.2C57.6001 85.6 63.0001 87.3 67.4001 85C67.4001 85 67.5001 85 67.5001 84.9" fill="white"/>
<path d="M63.1999 86.5999C62.2999 86.5999 61.2999 86.4999 60.3999 86.1999C57.8999 85.3999 55.8999 83.6999 54.6999 81.3999C54.0999 80.2999 53.6999 79.0999 53.4999 77.8999C53.1999 76.6999 53.0999 75.4999 53.3999 74.2999C53.8999 72.7999 54.8999 71.5999 56.1999 70.7999C56.6999 70.3999 57.3999 70.0999 57.9999 69.9999C58.8999 69.8999 59.7999 69.9999 60.6999 70.1999C62.1999 70.4999 63.6999 71.0999 65.0999 71.9999C66.4999 72.9999 67.5999 74.3999 68.1999 76.0999C68.2999 76.4999 68.0999 76.8999 67.7999 76.9999C67.3999 77.0999 66.9999 76.8999 66.8999 76.5999C66.3999 75.1999 65.5999 73.9999 64.3999 73.1999C63.1999 72.4999 61.8999 71.8999 60.4999 71.5999C59.7999 71.3999 59.0999 71.2999 58.3999 71.3999C57.8999 71.4999 57.4999 71.6999 57.0999 71.9999C56.0999 72.5999 55.2999 73.5999 54.8999 74.6999C54.6999 75.6999 54.7999 76.5999 54.9999 77.5999C55.1999 78.6999 55.5999 79.7999 56.0999 80.7999C58.1999 84.7999 63.1999 86.3999 67.2999 84.2999H67.3999C67.6999 84.0999 68.1999 84.1999 68.2999 84.5999C68.4999 84.8999 68.3999 85.3999 68.0999 85.5999C66.3999 86.2999 64.7999 86.5999 63.1999 86.5999Z" fill="#1E1E1E"/>
<path d="M86.1001 68.5999C86.1001 68.5999 93.0001 76.6998 91.8001 78.3998C90.6001 80.0998 86.5001 79.4998 86.5001 79.4998" fill="white"/>
<path d="M87.9999 80.3C87.4999 80.3 86.8999 80.3 86.3999 80.2C85.9999 80.2 85.6999 79.9 85.6999 79.5C85.6999 79.1 85.9999 78.8 86.3999 78.8H86.4999C87.3999 78.9 90.2999 79 91.0999 77.9C91.4999 77.1 88.7999 72.9 85.3999 69C85.0999 68.7 85.1999 68.3 85.4999 68C85.7999 67.7 86.1999 67.8 86.4999 68.1C89.1999 71.3 93.5999 76.9 92.1999 78.8C91.3999 80.1 89.4999 80.3 87.9999 80.3Z" fill="#1E1E1E"/>
<path d="M91.2999 84.1998L77.9999 79.5999C77.9999 79.5999 75.4999 84.4999 80.2999 89.1999C85.4999 94.2999 91.2999 84.1998 91.2999 84.1998Z" fill="white"/>
<path d="M83.5 91.3999C82.1 91.3999 80.8 90.7999 79.9 89.7999C74.8 84.7999 77.5 79.3999 77.5 79.3999C77.7 79.0999 78 78.8999 78.4 78.9999L91.7 83.5999C91.9 83.6999 92.1 83.7999 92.1 83.9999C92.2 84.1999 92.2 84.3999 92.1 84.5999C92 84.7999 88.5 90.7999 84.3 91.3999C83.9 91.2999 83.7 91.3999 83.5 91.3999ZM78.5 80.4999C78.1 81.7999 77.4 85.2999 80.9 88.6999C81.7 89.5999 82.8 89.9999 84 89.8999C86.7 89.4999 89.3 86.0999 90.3 84.4999L78.5 80.4999Z" fill="#1E1E1E"/>
<path d="M82.2 66.9C82.1 66.9 81.9 66.9 81.8 66.8C78.3 64.7 76.2 65.5 76.2 65.5C75.8 65.6 75.4 65.4 75.3 65.1C75.2 64.8 75.3 64.4 75.7 64.2C75.8 64.2 78.5 63.1 82.6 65.6C82.9 65.8 83 66.2 82.8 66.6C82.7 66.8 82.5 66.9 82.2 66.9Z" fill="#1E1E1E"/>
<path d="M90.8 67C90.6 67 90.4 66.9 90.3 66.8C90 66.5 90 66.1 90.3 65.8C90.4 65.7 90.6 65.6 90.8 65.6L91.3999 65.3C92.6999 64.5 95.3999 63 98.0999 64.1C98.4999 64.3 98.5999 64.7 98.4999 65C98.3999 65.4 97.9999 65.5 97.5999 65.4C95.5999 64.6 93.2999 65.8 92.0999 66.5C91.6999 66.7 91.3 66.9 90.8 67Z" fill="#1E1E1E"/>
<path d="M88.8999 95.8C88.8999 95.8 80.0999 96.2 75.8999 94C75.8999 94 79.7999 103.9 89.3999 105.9L88.8999 95.8Z" fill="#1E1E1E"/>
<path d="M89.5 106.7H89.3C79.4 104.6 75.4 94.7999 75.3 94.2999C75.2 93.9999 75.3 93.6999 75.5 93.4999C75.7 93.2999 76 93.2999 76.3 93.3999C80.3 95.4999 88.8 95.0999 88.9 95.0999C89.3 95.0999 89.6 95.3999 89.6 95.7999L90.1 106C90.1 106.2 90 106.4 89.9 106.6C89.8 106.7 89.6 106.7 89.5 106.7ZM77.4 95.3999C78.9 98.0999 82.5 103.4 88.8 105.1L88.3 96.5999C86.4 96.5999 81.2 96.5999 77.4 95.3999Z" fill="#1E1E1E"/>
<path d="M45.5 157.7C48.1 148.1 39.3 131.3 36.8 122.9C34.5 115.1 23.8 94.6999 25.8 86.6999C25.8 86.6999 30.7 67.2999 26 70.1999C23.4 71.7999 21.5 79.7999 21.5 79.7999C21.5 79.7999 18.6 62.1999 14 60.3999C9.39997 58.5999 0.299972 70.1999 1.69997 75.0999C6.19997 91.2999 7.89997 108.4 9.99997 125C11.8 139.9 11.5 163.7 31.9 164.8C40.3 165.2 44.2 162.3 45.5 157.7Z" fill="white"/>
<path d="M33.5 165.5C33 165.5 32.4 165.5 31.8 165.5C13.2 164.5 11.2 144.9 9.8 130.6C9.6 128.7 9.4 126.8 9.2 125.1L8.5 119.4C6.8 104.7 5 89.6 0.999997 75.3C-2.5779e-06 71.9 3.6 65.8 7.4 62.3C10 59.9 12.4 59.1 14.2 59.7C18 61.2 20.5 71.4 21.6 76.7C22.4 74.1 23.8 70.7 25.6 69.6C26.2 69.1 27 69.1 27.7 69.5C30.2 71.3 27.4 83.3 26.4 86.9C25 92.3 30 104.4 33.7 113.2C35.3 117.1 36.7 120.4 37.4 122.7C38.1 125 39.2 127.7 40.3 130.6C43.8 139.5 48.1 150.6 46.1 157.8C44.8 163 40.5 165.5 33.5 165.5ZM13 60.9C11.8 60.9 10.1 61.7 8.4 63.3C4.5 66.8 1.7 72.3 2.4 74.9C6.4 89.3 8.2 104.5 10 119.2L10.7 124.9C10.9 126.6 11.1 128.5 11.3 130.4C12.7 144.9 14.5 163.1 32 164C39.3 164.4 43.5 162.2 44.8 157.5C46.7 150.6 42.4 139.8 39 131.1C37.8 128.1 36.7 125.3 36 123.1C35.3 120.9 34 117.6 32.4 113.8C28.5 104.3 23.5 92.5 25 86.6C26.8 79.6 27.9 71.5 26.8 70.7C26.8 70.7 26.6 70.7 26.3 70.9C24.3 72.1 22.6 77.9 22.2 80.1C22.1 80.4 21.8 80.7 21.5 80.7C21.2 80.7 20.9 80.4 20.8 80.1C20 75.3 17.2 62.6 13.8 61.2C13.5 61 13.3 60.9 13 60.9Z" fill="#1E1E1E"/>
<path d="M11.4 88.1998H11.2C10.8 88.0998 10.6 87.6998 10.7 87.3998C12 81.9998 20.8 79.2998 21.2 79.1998C21.6 79.0998 22 79.2998 22.1 79.6998C22.2 80.0998 22 80.4998 21.6 80.5998C21.5 80.5998 13.2 83.1998 12 87.7998C12 87.9998 11.8 88.1998 11.4 88.1998Z" fill="#1E1E1E"/>
<path d="M108.9 159.3C108.6 159.3 108.3 159 108.2 158.7L102.2 119.1C102.1 118.7 102.3 118.3 102.7 118.3C103.1 118.2 103.5 118.4 103.5 118.8V118.9L109.5 158.5C109.6 158.9 109.3 159.2 108.9 159.3Z" fill="#1E1E1E"/>
<path d="M59.8 134.6C59.7 134.6 59.6 134.6 59.5 134.6C59.1 134.5 59 134.1 59.1 133.7L66.6 114.7C66.7 114.3 67.1 114.2 67.5 114.3C67.9 114.4 68 114.8 67.9 115.2L60.4 134.2C60.3 134.4 60 134.6 59.8 134.6Z" fill="#1E1E1E"/>
<path d="M69.1 121.8C69 121.8 69 121.8 68.9 121.8L60.8 119C60.4 118.9 60.2 118.5 60.4 118.1C60.5 117.7 60.9 117.5 61.3 117.7L69.4 120.4C69.8 120.5 70 120.9 69.8 121.3C69.6 121.6 69.4 121.7 69.1 121.8Z" fill="#1E1E1E"/>
<path d="M67.3 128.4C67.2 128.4 67.1 128.4 67 128.4L58.7 125.1C58.3 124.9 58.2 124.5 58.3 124.2C58.4 123.8 58.8 123.7 59.2 123.8L67.5 127.1C67.9 127.2 68 127.7 67.9 128C67.8 128.2 67.6 128.4 67.3 128.4Z" fill="#1E1E1E"/>
<path d="M243.1 123.6C246.1 114.1 251.5 110.7 274.2 98.5999C296.9 86.4999 330.2 95.5999 342.2 102.8C354.2 110 363 120.6 369.7 128.9C376.4 137.2 376.4 158.4 376.4 158.4H240.5C240.5 158.4 240.2 133.1 243.1 123.6Z" fill="#4CAF50"/>
<path d="M341.5 159.1C341.1 159.1 340.8 158.8 340.8 158.5L338.1 126.6C338.1 126.2 338.4 125.9 338.7 125.8C339.1 125.8 339.4 126.1 339.5 126.4L342.2 158.3C342.2 158.7 341.9 159 341.5 159.1Z" fill="#1E1E1E"/>
<path d="M303.8 23.9C320 25.3 327.6 33.1 331.9 66.9C335.3 93.5 333.1 91.4 350.4 107.7C350.4 107.7 334.6 129.3 302.6 129.3C270.6 129.3 248.5 112.7 248.5 112.7C248.5 112.7 272.7 97.9 272.2 83.4C270.7 32.9 287.6 22.5 303.8 23.9Z" fill="#1C411D"/>
<path d="M302.7 130C283.3 129.9 264.3 124 248.2 113.2C248 113.1 247.9 112.8 247.9 112.6C247.9 112.4 248 112.2 248.2 112C248.4 111.9 272 97.3 271.6 83.4C270.8 56.5 275.1 38.3 284.5 29.4C289.6 24.6 296.1 22.5 303.8 23.2C321.7 24.7 328.4 34.9001 332.5 66.8001C332.9 69.8001 333.2 72.4001 333.5 74.7001C335.7 92.8001 335.7 92.8001 350.8 107L350.9 107.1C351.2 107.3 351.2 107.7 351 108C350.9 108.3 334.6 130 302.7 130ZM249.9 112.7C265.6 122.9 284 128.5 302.7 128.6C331.2 128.6 346.9 110.9 349.5 107.7C334.4 93.5001 334.4 93.4 332.2 74.9C331.9 72.6 331.6 70.0001 331.2 67.0001C326.8 32.6001 318.8 25.9001 303.7 24.6001C296.3 24.0001 290.2 25.9001 285.4 30.5001C276.3 39.1001 272.1 56.9 272.9 83.4C273.4 96.7 254.3 109.8 249.9 112.7Z" fill="#1E1E1E"/>
<path d="M301.3 88.4001C311.296 88.4001 319.4 76.8043 319.4 62.5001C319.4 48.1959 311.296 36.6001 301.3 36.6001C291.304 36.6001 283.2 48.1959 283.2 62.5001C283.2 76.8043 291.304 88.4001 301.3 88.4001Z" fill="white"/>
<path d="M301.3 89.1002C284.7 89.1002 282.4 76.3002 282.4 62.5002C282.4 48.2002 282.4 35.9001 301.3 35.9001C320.2 35.9001 320.1 48.2002 320.1 62.5002C320.2 76.3002 317.9 89.1002 301.3 89.1002ZM301.3 37.3002C283.8 37.3002 283.8 47.9002 283.8 62.5002C283.8 77.6002 286.8 87.7001 301.3 87.7001C315.8 87.7001 318.7 77.6002 318.7 62.5002C318.8 47.9002 318.8 37.3002 301.3 37.3002Z" fill="#1E1E1E"/>
<path d="M298 58.5C298 58.5 291.1 66.6 292.3 68.3C293.5 70 297.5 69.4 297.5 69.4" fill="white"/>
<path d="M296.1 70.2C294.7 70.2 292.7 70 291.8 68.7C290.5 66.8 294.8 61.2 297.5 58.1C297.7 57.8 298.2 57.8 298.5 58C298.8 58.2 298.8 58.7 298.6 59C295.2 63 292.6 67.2 293 67.9C293.8 69 296.6 68.9 297.6 68.7C298 68.7 298.3 68.9 298.4 69.3C298.5 69.7 298.2 70 297.8 70.1C297.1 70.2 296.6 70.2 296.1 70.2Z" fill="#1E1E1E"/>
<path d="M290.616 58.2036C291.445 58.199 292.111 57.255 292.105 56.0952C292.098 54.9354 291.421 53.999 290.593 54.0036C289.764 54.0082 289.098 54.9522 289.105 56.112C289.111 57.2718 289.788 58.2082 290.616 58.2036Z" fill="#1E1E1E"/>
<path d="M306.116 58.2036C306.945 58.199 307.611 57.255 307.605 56.0952C307.598 54.9354 306.921 53.999 306.093 54.0036C305.264 54.0082 304.598 54.9522 304.605 56.112C304.611 57.2718 305.288 58.2082 306.116 58.2036Z" fill="#1E1E1E"/>
<path d="M292.8 74.1L306.1 69.5C306.1 69.5 308.6 74.4 303.8 79.1C298.6 84.2 292.8 74.1 292.8 74.1Z" fill="white"/>
<path d="M300.6 81.3001C300.4 81.3001 300.2 81.3001 300 81.3001C295.8 80.7001 292.3 74.8001 292.2 74.5001C292 74.2001 292.1 73.7001 292.5 73.5001H292.6L305.9 68.9C306.2 68.8 306.6 68.9001 306.8 69.2001C306.8 69.3001 309.4 74.6001 304.4 79.6001C303.3 80.7001 302 81.2001 300.6 81.3001ZM293.8 74.4C294.8 75.9 297.4 79.4001 300.2 79.8001C301.4 79.9001 302.5 79.5001 303.3 78.6001C306.8 75.2001 306.1 71.7 305.7 70.4L293.8 74.4Z" fill="#1E1E1E"/>
<path d="M272.2 159.1C271.8 159.1 271.5 158.8 271.5 158.4V130.6C271.5 130.2 271.8 129.9 272.2 129.9C272.6 129.9 272.9 130.2 272.9 130.6V158.4C272.9 158.8 272.6 159.1 272.2 159.1Z" fill="#1E1E1E"/>
<path d="M303.1 105.1C296.8 105 290.5 104.1 284.4 102.4C284 102.3 283.8 101.9 283.9 101.5C284 101.1 284.4 100.9 284.7 101C300.6 105.3 311.4 103.5 317.7 101.2C324.5 98.7001 327.5 95.2001 327.6 95.2001C327.9 94.9001 328.3 94.9001 328.6 95.1001C328.9 95.3001 328.9 95.8001 328.7 96.1001C328.2 96.6001 320.8 105.1 303.1 105.1Z" fill="#D1D3D4"/>
<path d="M240.5 159.1C240.2 159.1 239.9 158.9 239.8 158.5C236.3 138.3 244.3 119 244.4 118.8C244.6 118.4 245 118.3 245.3 118.4C245.7 118.6 245.8 119 245.7 119.3C245.6 119.5 237.8 138.5 241.2 158.3C241.3 158.7 241 159 240.7 159.1H240.5Z" fill="#1E1E1E"/>
<path d="M373 28.8C373 28.8 386.6 2.30002 388.9 1.40002C391.2 0.500017 397.9 3.20003 397.4 4.60003C396.9 6.00003 394.1 18.7 394.1 18.7C394.1 18.7 401.4 14 402.2 15.9C403 17.8 394 27.3 394 27.3L381.8 47.6L373 28.8Z" fill="white"/>
<path d="M381.8 48.3001C381.5 48.3001 381.3 48.1001 381.2 47.9001L372.3 29.1001C372.2 28.9001 372.2 28.7001 372.3 28.5001C375.5 22.2001 386.2 1.70011 388.6 0.700112C390.8 -0.199888 395.9 1.60011 397.5 3.20011C398 3.60011 398.2 4.20012 398.1 4.80012C397.8 5.70012 396.1 12.9001 395.2 17.2001C397.3 16.0001 400.5 14.3001 402 14.8001C402.4 14.9001 402.7 15.2001 402.9 15.6001C403.7 17.6001 398.1 24.1001 394.6 27.8001L382.4 48.0001C382.3 48.2001 382.1 48.3001 381.8 48.3001ZM373.8 28.8001L381.9 46.0001L393.4 26.9001L393.5 26.8001C397.5 22.5001 401.7 17.2001 401.5 16.1001C400.9 15.8001 397.6 17.3001 394.5 19.3001C394.3 19.5001 393.9 19.5001 393.7 19.3001C393.5 19.1001 393.3 18.8001 393.4 18.5001C393.5 18.0001 396.1 6.20011 396.7 4.40011C396.1 3.80011 395.4 3.30011 394.5 2.90011C392.4 2.00011 390.1 1.50011 389.1 1.90011C387.7 2.90011 380.2 16.4001 373.8 28.8001Z" fill="#1E1E1E"/>
<path d="M374 70.7001L388.8 37.4001L372.3 23.4001C372.3 23.4001 331.7 75.7002 348.7 89.1002L387.5 127.1L423.1 102.1L374 70.7001Z" fill="#4CAF50"/>
<path d="M420.3 47.7001C420.3 47.7001 421.8 40.1001 430 34.8001C438.2 29.5001 461 33.0001 465.1 42.3001C469.2 51.6001 457.1 75.9001 457.1 75.9001L418.2 86.4001L420.3 47.7001Z" fill="black"/>
<path d="M418.2 87.0002C417.8 87.0002 417.5 86.7002 417.5 86.3002C417.5 86.3002 417.5 86.3002 417.5 86.2002L419.6 47.6002V47.5002C419.7 47.2002 421.2 39.5002 429.7 34.1002C434.6 31.0002 444.5 30.6002 453.4 33.3002C459.8 35.2002 464.2 38.3002 465.8 41.9002C470 51.4002 458.3 75.1002 457.8 76.1002C457.7 76.3002 457.5 76.4002 457.3 76.5002L418.4 87.0002C418.3 87.0002 418.3 87.0002 418.2 87.0002ZM421 47.8002L419 85.4002L456.6 75.3002C457.9 72.5002 468.2 51.0002 464.4 42.6002C462.9 39.4002 458.8 36.5002 452.9 34.8002C444.5 32.3002 434.9 32.6002 430.4 35.5002C425.8 38.2002 422.5 42.6002 421 47.8002Z" fill="#1E1E1E"/>
<path d="M455.2 158.4C458 137.5 459.8 116.9 457.5 113C449.6 99.5001 413.9 107.8 407.3 110.8C404.7 112 406.3 133.1 402.1 158.5H455.2V158.4Z" fill="#1E1E1E"/>
<path d="M488.8 159.3C488.8 159.3 496 123.7 485.1 113.1C474.2 102.5 448.1 104.1 448.1 104.1C448.1 104.1 406.8 98.4 394.1 104.9C388.9 107.6 382.3 130.8 376 158.3H411.7L421.5 110.9L453.5 111.9L443 158.4L488.8 159.3Z" fill="#4CAF50"/>
<path d="M424.4 92.4L421.6 111C421.6 111 422.9 123.3 435.3 121.8C442.8 120.8 449.4 116.5 453.3 110.1L457.1 75.9C457.1 75.9 448.7 70.1 453.5 50.9C442.3 51.5 431.1 50.4 420.2 47.8C420.2 47.8 413.6 72.2 414 81.8C414.4 91.4 424.4 92.4 424.4 92.4Z" fill="white"/>
<path d="M433.3 122.6C430.6 122.7 427.9 121.8 425.8 120.2C421.6 116.9 421 111.3 421 111.1C421 111 421 111 421 110.9L423.7 93.0001C421.3 92.5001 413.8 90.2001 413.4 81.7001C413 72.1001 419.4 48.5001 419.7 47.5001C419.8 47.1001 420.2 46.9001 420.6 47.0001C431.4 49.6001 442.5 50.6001 453.6 50.1001C453.8 50.1001 454.1 50.2001 454.2 50.3001C454.4 50.5001 454.4 50.7001 454.3 50.9001C449.6 69.3001 457.5 75.1001 457.6 75.2001C457.8 75.4001 457.9 75.6001 457.9 75.9001L454.1 110.1C454.1 110.2 454.1 110.3 454 110.4C450 117 443.1 121.5 435.5 122.5C434.7 122.6 434 122.6 433.3 122.6ZM422.4 111C422.5 111.7 423.2 116.3 426.7 119C428.9 120.8 431.8 121.4 435.3 121C442.5 120 448.8 115.9 452.7 109.8L456.4 76.1001C454.8 74.7001 448.7 68.3001 452.7 51.5001C442 51.9001 431.3 50.9001 420.9 48.5001C419.8 52.5001 414.5 73.1001 414.9 81.6001C415.3 90.4001 424.2 91.6001 424.6 91.6001C424.8 91.6001 425 91.7001 425.1 91.9001C425.2 92.1001 425.3 92.3001 425.2 92.4001L422.4 111Z" fill="#1E1E1E"/>
<path d="M423 102.1C423 102.1 427.7 103.6 433.7 99.1C439.7 94.6 439.5 91.5 439.5 91.5C439.5 91.5 432.2 94.9 424.5 92.4L423 102.1Z" fill="#1E1E1E"/>
<path d="M425 103C424.2 103 423.5 102.9 422.7 102.7C422.4 102.6 422.2 102.3 422.2 101.9L423.6 92.2001C423.6 92.0001 423.7 91.8001 423.9 91.7001C424.1 91.6001 424.3 91.6001 424.5 91.6001C431.9 94.0001 439 90.8001 439 90.8001C439.2 90.7001 439.4 90.7001 439.6 90.8001C439.8 90.9001 439.9 91.1001 439.9 91.4001C439.9 91.8001 439.9 94.9001 433.8 99.6001C431.5 101.7 428.3 102.9 425 103ZM423.8 101.6C425.2 101.8 428.8 102 433.3 98.6001C436.7 96.0001 438 93.9001 438.5 92.7001C434.2 94.2001 429.5 94.4001 425 93.3001L423.8 101.6Z" fill="#1E1E1E"/>
<path d="M435.6 65.3C435.6 65.3 428.7 75.3001 430.3 77.1001C431.9 78.9001 436.4 77.8 436.4 77.8" fill="white"/>
<path d="M433.5 78.8003C432.1 78.9003 430.8 78.5002 429.7 77.5002C427.9 75.5002 432.8 68.0002 434.9 64.9002C435.1 64.6002 435.6 64.5002 435.9 64.7002C436.2 64.9002 436.3 65.4002 436.1 65.7002C432.7 70.7002 430.1 75.8003 430.7 76.6003C431.7 77.8003 435 77.3002 436.1 77.0002C436.5 76.9002 436.9 77.1002 437 77.5002C437.1 77.9002 436.9 78.3002 436.5 78.4002C435.5 78.6002 434.5 78.8003 433.5 78.8003Z" fill="#1E1E1E"/>
<path d="M434.5 85.6002H434C428.2 85.4002 424.1 80.8002 423.9 80.6002C423.6 80.3002 423.6 79.9002 423.9 79.6002C424.2 79.3002 424.6 79.4002 424.9 79.6002C424.9 79.6002 428.9 83.9002 434 84.1002C437.1 84.1002 440 82.9002 442.1 80.7002C442.4 80.4002 442.8 80.4002 443.1 80.7002C443.4 81.0002 443.4 81.4002 443.1 81.7002C440.9 84.2002 437.8 85.6002 434.5 85.6002Z" fill="#1E1E1E"/>
<path d="M444.798 63.9537C444.858 62.4084 444.369 61.1349 443.707 61.1094C443.045 61.0838 442.459 62.3158 442.4 63.8611C442.34 65.4064 442.829 66.6799 443.491 66.7055C444.153 66.731 444.738 65.499 444.798 63.9537Z" fill="#1E1E1E"/>
<path d="M427.47 62.0704C427.529 60.5251 427.041 59.2516 426.378 59.2261C425.716 59.2005 425.131 60.4325 425.071 61.9779C425.012 63.5232 425.5 64.7966 426.163 64.8222C426.825 64.8477 427.41 63.6157 427.47 62.0704Z" fill="#1E1E1E"/>
<path d="M449.9 70.0002C451.2 68.3002 452.8 66.8002 454.6 65.7002C455.6 65.0002 456.7 64.7002 457.9 64.7002C458.8 64.8002 459.7 65.2002 460.5 65.8002C462.8 67.5002 464.2 70.0002 464.5 72.9002C464.6 74.2002 464.4 75.5002 464 76.7002C463.1 78.5002 461.6 80.0002 459.7 80.8002C457.8 81.6002 455.9 82.2002 453.9 82.6002" fill="white"/>
<path d="M453.8 83.2002C453.4 83.2002 453.1 82.9002 453 82.5002C453 82.1002 453.2 81.8002 453.6 81.7002C455.5 81.3002 457.4 80.8002 459.2 79.9002C460.9 79.1002 462.3 77.8002 463.1 76.1002C463.5 75.0002 463.7 73.8002 463.6 72.7002C463.3 70.1002 462 67.7002 459.9 66.2002C459.3 65.7002 458.5 65.4002 457.7 65.3002C456.7 65.3002 455.7 65.7002 454.9 66.2002C453.2 67.3002 451.6 68.7002 450.4 70.3002C450.2 70.6002 449.7 70.7002 449.4 70.5002C449.1 70.3002 449 69.8002 449.3 69.5002C450.6 67.7002 452.3 66.2002 454.2 65.0002C455.3 64.3002 456.6 63.8002 457.9 63.9002C459 64.0002 460 64.4002 460.9 65.1002C463.3 66.9002 464.9 69.7002 465.2 72.7002C465.3 74.1002 465.1 75.5002 464.6 76.8002C463.6 78.8002 462 80.4002 460 81.3002C458.1 82.2002 456.1 82.8002 454.1 83.2002H453.8Z" fill="#1E1E1E"/>
<path d="M478.8 138.1C475.2 142.8 470.3 150.1 465.1 158.4H478.8V138.1Z" fill="#4CAF50"/>
<path d="M465.1 159.1C464.7 159.1 464.4 158.8 464.4 158.4C464.4 158.3 464.4 158.2 464.5 158.1L478.2 126.8C478.4 126.4 478.8 126.3 479.2 126.4C479.6 126.6 479.7 127 479.6 127.3L465.9 158.6C465.7 158.9 465.4 159.1 465.1 159.1Z" fill="#1E1E1E"/>
<path d="M383.1 23.4001C382.9 23.4001 382.8 23.4001 382.7 23.3001C382.4 23.1001 382.3 22.6001 382.6 22.3001C387 16.4001 394 18.0001 394.3 18.0001C394.7 18.1001 394.9 18.4001 394.9 18.8001C394.8 19.2001 394.5 19.4001 394.1 19.4001C394.1 19.4001 394.1 19.4001 394 19.4001C393.7 19.3001 387.5 18.0001 383.8 23.1001C383.6 23.3001 383.3 23.4001 383.1 23.4001Z" fill="#1E1E1E"/>
</svg>
