<svg width="446" height="278" viewBox="0 0 446 278" fill="none" xmlns="http://www.w3.org/2000/svg">
<path d="M444.8 277.7H1.2C0.800001 277.7 0.5 277.4 0.5 277V3.50005C0.5 3.10005 0.800001 2.80005 1.2 2.80005C1.6 2.80005 1.9 3.10005 1.9 3.50005V276.3H444.7C445.1 276.3 445.4 276.6 445.4 277C445.4 277.4 445.1 277.7 444.8 277.7Z" fill="#449247"/>
<path d="M92.7 277.7H33.6C33.2 277.7 32.9 277.4 32.9 277V247.4C32.9 247 33.2 246.7 33.6 246.7H92.7C93.1 246.7 93.4 247 93.4 247.4V277C93.4 277.4 93.1 277.7 92.7 277.7ZM34.3 276.3H92V248.1H34.3V276.3Z" fill="#1E1E1E"/>
<path d="M172.6 277.7H113.5C113.1 277.7 112.8 277.4 112.8 277V201.4C112.8 201 113.1 200.7 113.5 200.7H172.6C173 200.7 173.3 201 173.3 201.4V277C173.3 277.4 173 277.7 172.6 277.7ZM114.2 276.3H171.9V202.1H114.2V276.3Z" fill="#1E1E1E"/>
<path d="M252.5 277.7H193.4C193 277.7 192.7 277.4 192.7 277V125.8C192.7 125.4 193 125.1 193.4 125.1H252.5C252.9 125.1 253.2 125.4 253.2 125.8V277C253.2 277.4 252.9 277.7 252.5 277.7ZM194.2 276.3H251.9V126.5H194.2V276.3Z" fill="#1E1E1E"/>
<path d="M332.5 277.7H273.4C273 277.7 272.7 277.4 272.7 277V69.7C272.7 69.3 273 69 273.4 69H332.5C332.9 69 333.2 69.3 333.2 69.7V277C333.1 277.4 332.8 277.7 332.5 277.7ZM274.1 276.3H331.8V70.4H274.1V276.3Z" fill="#1E1E1E"/>
<path d="M412.4 277.7H353.3C352.9 277.7 352.6 277.4 352.6 277V183C352.6 182.6 352.9 182.3 353.3 182.3H412.4C412.8 182.3 413.1 182.6 413.1 183V277C413 277.4 412.7 277.7 412.4 277.7ZM354 276.3H411.7V183.7H354V276.3Z" fill="#1E1E1E"/>
<path d="M222.6 7.30005C224.2 5.50005 226 3.90004 228 2.60004C231.8 0.300044 236.6 0.500044 240.2 3.10004C241.2 2.00004 242.6 1.40004 244.1 1.60004C249 1.80004 252.6 6.10004 254.9 10.1C257.8 15.2 258.7 21.3 261.5 26.4C264 31 270.9 34.2 275.3 36.5C278.6 38.2 282 39.8 284.7 42.2C290.8 47.6 292.9 56.8001 290.4 64.6001C287.9 72.4001 281.5 78.5 273.9 81.5C270.7 82.7 267.5 83.6 264.1 84.3C260.7 85.1 257.3 85.8001 253.9 85.6001C251.3 85.4001 248.7 84.6 246.1 84.2C243.5 83.8 241 83.7 238.5 83C231.8 80.9 228.7 75.2 225.5 69.4C221.6 62.3 220.2 54.3001 218.2 46.6001C215.3 35.4001 214.5 16.6 222.6 7.30005Z" fill="white"/>
<path d="M255.3 86.2999C254.8 86.2999 254.3 86.2999 253.8 86.2999C252.2 86.0999 250.6 85.8999 249 85.4999C248 85.2999 247 85.0999 246 84.8999C245.2 84.7999 244.3 84.6999 243.5 84.5999C241.8 84.4999 240 84.1999 238.3 83.6999C231.5 81.5999 228.3 75.7999 225.2 70.1999L225 69.7999C221.8 63.9999 220.2 57.5999 218.7 51.3999C218.3 49.8999 218 48.3999 217.6 46.8999C214.8 36.1999 213.7 16.7999 222.1 7.09994C223.7 5.19994 225.6 3.49994 227.7 2.19994C231.6 -0.100063 236.4 -5.82933e-05 240.2 2.39994C241.3 1.49994 242.7 0.999939 244.2 1.09994C248.5 1.29994 252.3 4.29994 255.5 9.89994C256.9 12.5999 258.1 15.4999 259 18.3999C259.8 21.0999 260.9 23.6999 262.1 26.1999C264.2 30.0999 270 33.0999 274.2 35.2999L275.7 36.0999C276.2 36.3999 276.8 36.6999 277.4 36.9999C280.2 38.2999 282.9 39.9999 285.3 41.8999C291.4 47.1999 293.8 56.7999 291.2 64.9999C288.8 72.5999 282.5 79.0999 274.3 82.3999C271.1 83.5999 267.8 84.4999 264.4 85.1999C261.3 85.7999 258.3 86.1999 255.3 86.2999ZM223.1 7.79994C215.1 17.0999 216.2 35.8999 218.9 46.3999C219.3 47.8999 219.7 49.3999 220 50.8999C221.5 56.9999 223 63.3999 226.1 68.9999L226.3 69.3999C229.4 74.9999 232.3 80.2999 238.6 82.1999C240.2 82.5999 241.8 82.8999 243.5 83.0999C244.4 83.1999 245.2 83.2999 246.1 83.3999C247.1 83.5999 248.1 83.7999 249.2 83.9999C250.7 84.3999 252.3 84.5999 253.8 84.7999C257.2 85.0999 260.6 84.2999 263.8 83.5999C267.1 82.8999 270.3 81.9999 273.5 80.8999C281.3 77.7999 287.3 71.5999 289.6 64.3999C292.1 56.5999 289.8 47.6999 284.1 42.6999C281.8 40.7999 279.2 39.1999 276.5 37.8999C275.9 37.5999 275.4 37.2999 274.8 36.9999L273.3 36.1999C268.7 33.7999 263 30.7999 260.7 26.5999C259.4 23.9999 258.3 21.2999 257.5 18.4999C256.7 15.6999 255.5 12.8999 254.2 10.2999C251.2 5.09994 247.8 2.29994 244 2.19994C242.8 2.09994 241.5 2.49994 240.7 3.49994C240.5 3.79994 240 3.89994 239.7 3.59994C236.3 1.19994 231.8 0.999939 228.3 3.09994C226.3 4.49994 224.5 5.99994 223.1 7.79994Z" fill="#1E1E1E"/>
<path d="M189.3 60.4C189.3 60.4 185.3 45.8 184.2 45.2C183.1 44.6 183 48.8 183 48.8C183 48.8 178.7 45 174 44.1C169.3 43.2 168.2 44.5 168.9 45.2C169.6 45.9 175.7 47.1 175.7 47.1C175.7 47.1 167.6 46.9 167.9 48.5C168.2 50.1 175.2 49.5 175.2 49.5C175.2 49.5 167.6 50.5 168.7 52.1C169.8 53.7 175.7 52.1 175.7 52.1C175.7 52.1 167.3 54 169.7 55.3C172.1 56.6 177.6 54.2 178.6 55.7C179.6 57.2 181.1 64.2 181.1 64.2L189.3 60.4Z" fill="white"/>
<path d="M181.1 64.8C181 64.8 180.9 64.8 180.8 64.7C180.6 64.6 180.5 64.4 180.5 64.3C180.1 62.4 178.9 57.2 178.1 56C177.8 55.6 176 55.8 174.7 56C172.8 56.3 170.7 56.6 169.4 55.8C168.9 55.6 168.6 55.1 168.6 54.6C168.7 54.1 169.1 53.7 169.9 53.3C169.2 53.2 168.6 52.9 168.2 52.4C167.9 52.1 167.9 51.6 168.1 51.3C168.5 50.7 169.1 50.3 169.8 50.1C168.5 49.9 167.5 49.4 167.4 48.6C167.3 48.3 167.5 47.9 167.7 47.7C168.2 47.1 169.5 46.8 171 46.6C170.2 46.4 169.4 46.1 168.7 45.7C168.3 45.3 168.2 44.7 168.4 44.2C169 43.1 171.2 42.8 174.3 43.4C177.3 44.1 180.1 45.5 182.6 47.4C182.7 46.2 183 45 183.6 44.6C183.9 44.4 184.3 44.4 184.6 44.6C185.7 45.2 188.2 53.4 190 60.2C190.1 60.5 189.9 60.8 189.6 61L181.4 64.8C181.3 64.8 181.2 64.8 181.1 64.8ZM177.1 54.5C177.9 54.4 178.7 54.7 179.2 55.3C180 56.6 181.2 61.3 181.6 63.3L188.6 60.1C186.9 54 184.9 47.6 184.1 46.1C183.9 47 183.8 47.9 183.8 48.9C183.8 49.2 183.6 49.4 183.4 49.5C183.2 49.6 182.9 49.6 182.7 49.4C182.7 49.4 178.5 45.7 174 44.8C170.7 44.1 169.6 44.7 169.5 44.9C171.6 45.6 173.8 46.2 176 46.5C176.3 46.6 176.6 46.9 176.5 47.2C176.5 47.5 176.2 47.8 175.9 47.8C172.5 47.7 169.1 48.1 168.7 48.6C169 49 172.2 49.2 175.3 48.9C175.6 48.9 176 49.1 176 49.5C176 49.8 175.8 50.2 175.4 50.2C172.4 50.6 169.6 51.4 169.3 51.9C169.8 52.4 172.3 52.3 174.7 51.8L175.7 51.6C176 51.5 176.4 51.8 176.5 52.1C176.6 52.4 176.4 52.7 176.1 52.8L175.1 53C173.4 53.4 171.8 54 170.2 54.8C171.2 55.3 173.1 55 174.7 54.8C175.4 54.7 176.3 54.6 177.1 54.5Z" fill="#1E1E1E"/>
<path d="M199 79L189.9 57.3C189.9 57.3 177.6 60.7 177.9 61.5C178.2 62.3 183.7 86.1001 184.7 86.1001C185.7 86.1001 199 79 199 79Z" fill="#449247"/>
<path d="M157.1 167.4C156.1 168.4 154.8 169 153.5 169.2C151.9 169.2 134.4 166 133.7 168.4C133 170.8 134.4 172 138.6 173.9C144.2 176.5 162.9 182.7 162.9 182.7L167 173.1L157.1 167.4Z" fill="white"/>
<path d="M162.9 183.4C162.8 183.4 162.8 183.4 162.7 183.4C161.9 183.2 143.8 177.2 138.3 174.6C134.6 172.9 132.1 171.4 133.1 168.3C133.7 166.3 139.2 166.7 150 168.3C151.7 168.5 153.1 168.8 153.5 168.7C154.7 168.5 155.8 168 156.7 167.2C156.9 167 157.2 166.9 157.5 167.1L167.4 172.8C167.7 173 167.8 173.3 167.7 173.6L163.6 183.2C163.4 183.2 163.1 183.4 162.9 183.4ZM136.9 168.1C135.5 168.1 134.5 168.2 134.3 168.6C133.8 170.3 134.4 171.3 138.8 173.4C143.7 175.7 159.4 180.9 162.5 182L166.1 173.4L157.1 168.3C156.1 169.2 154.8 169.8 153.4 169.9C153 169.9 151.8 169.8 149.7 169.5C145.5 168.7 141.2 168.3 136.9 168.1Z" fill="#1E1E1E"/>
<path d="M197.4 176.5C197.4 176.5 178 180.3 177 181.4C176 182.5 177.2 184.1 182.1 185.2C187 186.3 208.2 188.1 208.2 188.1C208.2 188.1 209.2 182.4 208.3 179.3C207.4 176.2 197.4 176.5 197.4 176.5Z" fill="white"/>
<path d="M208.3 188.8C207.4 188.7 186.9 187 182 185.9C178.6 185.1 176.6 184 176.2 182.7C176 182.1 176.2 181.5 176.6 181C177.6 179.9 191.4 177 197.3 175.9H197.4C199.2 175.9 208 175.9 209 179.2C209.9 182.4 208.9 188 208.9 188.3C208.9 188.6 208.6 188.8 208.3 188.8ZM197.5 177.2C188.5 179 178.4 181.2 177.5 181.9C177.4 182 177.4 182.2 177.4 182.3C177.5 182.5 178 183.7 182.3 184.6C186.6 185.5 204.3 187.1 207.7 187.4C207.9 185.9 208.5 181.9 207.8 179.5C207.3 177.8 201.5 177.1 197.5 177.2Z" fill="#1E1E1E"/>
<path d="M261.9 107.4C261.9 107.4 275 78.7 273.4 59.9C271.8 41.1 259.5 40 255.2 39.7C250.9 39.4 228.3 36.4 220 46.5C211.7 56.6 213.9 105.4 213.9 105.4L261.9 107.4Z" fill="#449247"/>
<path d="M232.9 48.4L234.8 79.6001L249.4 45.8L232.9 48.4Z" fill="#1E1E1E"/>
<path d="M234.8 80.3H234.7C234.4 80.2 234.1 80 234.1 79.7L232.1 48.5C232.1 48.1 232.3 47.8 232.7 47.8L249.2 45.2C249.5 45.2 249.7 45.3 249.9 45.5C250.1 45.7 250.1 46 250 46.2L235.5 80C235.3 80.1 235.1 80.3 234.8 80.3ZM233.6 49L235.3 76.6L248.2 46.7L233.6 49Z" fill="#1E1E1E"/>
<path d="M213 95.7999C213 95.7999 194.4 100.8 177.7 112.1C170.1 117.3 155.8 168.2 155.8 168.2C155.8 168.2 157.4 177 167.6 175.6L212.1 117.9C212.1 117.9 221.7 95.4999 213 95.7999Z" fill="#1E1E1E"/>
<path d="M165.5 176.5C160.5 176.6 156.2 173.2 155.1 168.3C155.1 168.2 155.1 168.1 155.1 168C155.7 165.9 169.5 116.8 177.3 111.5C193.9 100.3 212.6 95.0999 212.8 95.0999C212.9 95.0999 213 95.0999 213.1 95.0999C214.4 94.9999 215.6 95.5999 216.3 96.6999C219.6 101.6 213.4 116.6 212.7 118.3C212.7 118.4 212.6 118.4 212.6 118.5L168.1 176.2C168 176.3 167.8 176.4 167.6 176.5C166.9 176.4 166.2 176.5 165.5 176.5ZM156.5 168.2C156.8 169.3 158.7 176 167.2 175L211.5 117.6C213.4 113.1 217.7 101.1 215.2 97.4999C214.7 96.7999 213.9 96.4999 213.1 96.4999C211.7 96.8999 193.9 101.9 178.1 112.7C172.3 116.6 161.5 150.6 156.5 168.2Z" fill="#1E1E1E"/>
<path d="M261.9 107.4C261.9 107.4 224.4 102.5 215.4 101.1C215.4 101.1 202.5 105.9 195.8 118.2C189.1 130.5 193.5 178.3 193.5 178.3C193.5 178.3 202.8 181.5 209.7 180.2L223.6 127.3C223.6 127.3 259.6 131 261.9 107.4Z" fill="#1E1E1E"/>
<path d="M206 181.3C201.7 181.2 197.4 180.4 193.2 179C192.9 178.9 192.8 178.7 192.7 178.4C192.5 176.4 188.4 130.2 195.1 117.9C201.8 105.6 214.5 100.7 215.1 100.5C215.2 100.5 215.3 100.5 215.4 100.5C224.3 101.8 261.5 106.7 261.9 106.8C262.3 106.9 262.5 107.2 262.5 107.6C261.5 117.6 254.4 124.3 241.9 127C236 128.2 230 128.6 224 128.2L210.2 180.6C210.1 180.9 209.9 181.1 209.6 181.1C208.6 181.2 207.3 181.3 206 181.3ZM194.2 177.8C196 178.4 203.4 180.5 209.2 179.6L223 127.1C223.1 126.8 223.4 126.6 223.8 126.6C229.8 127.1 235.9 126.7 241.9 125.5C253.6 122.9 260.1 117.1 261.3 108C256.2 107.3 224.2 103.1 215.6 101.9C214.1 102.5 202.6 107.5 196.5 118.6C190.3 129.9 193.7 172.9 194.2 177.8Z" fill="#1E1E1E"/>
<path d="M220.1 46.5C220.1 46.5 214 58.3 210.4 64.3C206.8 70.3 199 79 199 79C199 79 171.3 88.9 171.1 89.4C170.9 89.9 173.7 99.3 173.7 99.3C173.7 99.3 202.8 97.2 207.6 94.9C212.4 92.6 222.2 81.4 222.2 81.4L220.1 46.5Z" fill="#449247"/>
<path d="M232.9 38.2V48.4C234.5 51.8 238.3 53.4 241.9 52.3C248.6 50.6 249.4 45.8 249.4 45.8L249 27C249 27 243.6 23.8 242.5 12C242.5 12 238 17.4 228.1 16.2C228.1 16.2 226.3 26.3 227 31.4C227.7 36.5 232.8 38.1 232.9 38.2Z" fill="white"/>
<path d="M239.5 53.3C236.4 53.3 233.6 51.5 232.2 48.7C232.2 48.6 232.2 48.5 232.2 48.4V38.7C228.8 37.2 226.7 34.7 226.3 31.6C225.6 26.4 227.4 16.5 227.4 16.1C227.5 15.7 227.8 15.5 228.2 15.5C237.6 16.6 242 11.6 242 11.5C242.2 11.3 242.5 11.2 242.7 11.3C243 11.4 243.2 11.6 243.2 11.9C244.3 23.1 249.3 26.3 249.4 26.3C249.6 26.4 249.7 26.6 249.7 26.9L250 45.7C250 46 249 51.1 242 52.9C241.2 53.2 240.4 53.3 239.5 53.3ZM233.6 48.2C234 49 236.2 53 241.8 51.6C247.9 50 248.7 45.9 248.8 45.7L248.5 27.4C247.3 26.5 243.4 22.9 242.1 13.6C240.2 15.1 235.9 17.8 228.8 17.1C228.4 19.4 227.2 27.2 227.8 31.5C228.3 35.2 231.4 36.9 233.1 37.6C233.2 37.6 233.3 37.7 233.4 37.7C233.6 37.8 233.7 38 233.7 38.3L233.6 48.2Z" fill="#1E1E1E"/>
<path d="M245.2 26.6999C245.4 25.7999 245.9 24.9999 246.7 24.3999C247.4 23.8999 248.2 23.4999 249 23.1999C249.4 22.9999 249.9 22.8999 250.4 22.8999C250.8 22.8999 251.1 23.0999 251.4 23.1999C252.1 23.4999 252.7 24.0999 253 24.8999C253.2 25.4999 253.2 26.1999 253.1 26.7999C253 27.4999 252.9 28.1999 252.6 28.7999C251.5 31.4999 248.4 32.7999 245.7 31.6999H245.6" fill="white"/>
<path d="M247.6 32.8C246.8 32.8 246 32.6 245.2 32.3C244.8 32.1 244.7 31.6999 244.8 31.3999C245 30.9999 245.4 30.9 245.7 31C248 32 250.7 30.9 251.7 28.5C251.9 27.9 252.1 27.3 252.1 26.6C252.2 26.1 252.2 25.5 252 25C251.7 24.4 251.3 24 250.7 23.7C250.5 23.6 250.2 23.5 250 23.5C249.6 23.5 249.3 23.6 248.9 23.7C248.1 23.9 247.4 24.3 246.8 24.8C246.2 25.3 245.8 26 245.6 26.8C245.5 27.2 245.1 27.4 244.8 27.3C244.5 27.2 244.2 26.8 244.3 26.5C244.5 25.4 245.1 24.5 246 23.8C246.8 23.2 247.6 22.8 248.5 22.5C249 22.3 249.6 22.2 250.2 22.2C250.6 22.3 251 22.4 251.4 22.6C252.3 23 253 23.7 253.4 24.6C253.6 25.3 253.7 26.1 253.5 26.8C253.4 27.6 253.2 28.3 253 29C252.2 31.3 250 32.8 247.6 32.8Z" fill="#1E1E1E"/>
<path d="M236.6 22.5999C236.6 22.5999 233 27.6998 233.8 28.6998C234.6 29.6998 236.9 29.0999 236.9 29.0999" fill="white"/>
<path d="M235.5 29.9C234.7 30 233.9 29.7001 233.3 29.1001C232.5 28.2001 233.4 25.9 236.1 22.2C236.3 21.9 236.7 21.8 237.1 22C237.5 22.2 237.5 22.6 237.3 23C237.3 23 237.3 23.0001 237.3 23.1001C235.7 25.4001 234.4 27.8 234.5 28.4C234.8 28.7 236.1 28.6 236.9 28.5C237.3 28.4 237.6 28.7001 237.7 29.1001C237.8 29.4001 237.6 29.8 237.2 29.9C236.6 29.8 236 29.9 235.5 29.9Z" fill="#1E1E1E"/>
<path d="M241.401 21.0037C241.44 20.3422 241.07 19.7817 240.574 19.7519C240.078 19.7222 239.644 20.2343 239.604 20.8959C239.564 21.5574 239.934 22.1179 240.43 22.1477C240.927 22.1774 241.361 21.6653 241.401 21.0037Z" fill="#1E1E1E"/>
<path d="M234.494 22.0571C234.541 21.396 234.176 20.8319 233.68 20.797C233.185 20.7622 232.745 21.2698 232.699 21.9309C232.652 22.592 233.016 23.1562 233.512 23.191C234.008 23.2259 234.448 22.7182 234.494 22.0571Z" fill="#1E1E1E"/>
<path d="M236.8 34.5999C234.7 34.4999 232.6 33.8999 230.8 32.6999C230.5 32.4999 230.4 32.0999 230.6 31.6999C230.8 31.2999 231.2 31.2999 231.6 31.4999C231.6 31.4999 235.5 33.8999 238.5 32.8999C240 32.3999 241.1 30.9999 241.8 28.9999C241.9 28.5999 242.3 28.3999 242.7 28.5999C243.1 28.6999 243.3 29.0999 243.1 29.4999C242.3 31.9999 240.9 33.5999 238.9 34.2999C238.3 34.3999 237.6 34.5999 236.8 34.5999Z" fill="#1E1E1E"/>
<path d="M232.9 38.2C232.9 38.2 239.2 39.7 242.9 37.5C242.9 37.5 238.8 46 232.9 45.1V38.2Z" fill="#1E1E1E"/>
<path d="M233.8 46C233.5 46 233.1 45.9999 232.8 45.8999C232.5 45.7999 232.2 45.6 232.2 45.2V38.1999C232.2 37.7999 232.5 37.5 232.9 37.5C233 37.5 233 37.5 233.1 37.5C233.2 37.5 239.2 38.8999 242.6 36.8999C242.9 36.6999 243.4 36.8 243.6 37.1C243.7 37.3 243.7 37.6 243.6 37.8C243.4 38.2 239.6 46 233.8 46ZM233.6 44.6C237.1 44.7 239.9 41.2 241.3 39C238.8 39.6 236.1 39.6 233.6 39.1V44.6Z" fill="#1E1E1E"/>
<path d="M267.3 44.3C272.5 45.2 293.4 93.6 286.3 99.2C275.1 107.8 236.2 99.1 236.2 99.1L239.4 84.1C239.4 84.1 264.4 84.8 264.8 79.7C265.2 74.6 250.2 50.8 252.2 47.2C254.2 43.6 267.3 44.3 267.3 44.3Z" fill="#449247"/>
<path d="M242 89.0999C237.8 89.2999 233.7 89.0999 229.5 88.4999C226.5 87.7999 223.3 87.3999 220.2 87.3999C216.1 87.5999 212 88.4999 208.2 90.0999C208 90.1999 207.9 90.1999 207.8 90.3999C207.4 90.8999 208.3 91.3999 208.9 91.3999C210.6 91.3999 212.2 91.1999 213.8 90.7999C209.9 92.2999 206.1 94.1999 202.7 96.6999C202.3 96.9999 201.9 97.3999 202.1 97.8999C202.3 98.3999 203.1 98.2999 203.6 97.9999L212.6 93.8999C210.3 94.7999 208.1 96.0999 206.2 97.7999C205.9 97.9999 205.6 98.2999 205.7 98.6999C205.8 99.2999 206.7 99.1999 207.3 98.8999C210 97.4999 212.6 95.9999 215.1 94.0999L209.6 98.2999C209.5 98.6999 210 99.0999 210.5 99.1999C211 99.1999 211.4 98.9999 211.8 98.7999L218 95.1999L214.1 97.8999C213.5 98.2999 212.8 98.9999 213.1 99.6999C213.4 100.4 214.6 100.3 215.4 99.8999C218.6 98.4999 221.9 97.4999 225.3 96.8999C226.5 96.4999 227.7 96.2999 229 96.1999C230.9 96.3999 232.8 96.7999 234.6 97.3999C237.4 97.9999 240.2 98.6999 243 99.2999" fill="white"/>
<path d="M214 100.9C213.8 100.9 213.5 100.9 213.3 100.8C212.9 100.7 212.6 100.4 212.5 99.9999C212.4 99.6999 212.4 99.4999 212.4 99.1999L212.1 99.3999C211.6 99.6999 211.1 99.8999 210.5 99.8999C210 99.8999 209.6 99.6999 209.3 99.2999C209.2 99.0999 209.1 98.9999 209 98.7999L207.6 99.4999C207 99.7999 206.4 99.8999 205.7 99.5999C205.4 99.3999 205.1 99.0999 205.1 98.7999C205 98.4999 205.1 98.1999 205.2 97.9999L203.9 98.5999C203.4 98.8999 202.8 98.8999 202.2 98.7999C201.9 98.6999 201.7 98.4999 201.5 98.1999C201.4 97.8999 201.2 97.0999 202.3 96.2999C204.5 94.6999 206.8 93.3999 209.2 92.1999H209C208.3 92.1999 207.6 91.7999 207.3 91.2999C207.1 90.8999 207.2 90.4999 207.4 90.1999C207.6 89.9999 207.8 89.7999 208.1 89.6999C212 88.0999 216.1 87.0999 220.3 86.8999C223.1 86.7999 225.9 87.0999 228.6 87.7999L229.7 87.9999C233.8 88.5999 237.9 88.7999 242 88.5999C242.3 88.5999 242.6 88.7999 242.7 89.1999C242.7 89.1999 242.7 89.1999 242.7 89.2999C242.7 89.5999 242.4 89.8999 242.1 89.9999C237.9 90.2999 233.7 90.0999 229.5 89.3999L228.4 89.1999C225.8 88.5999 223.1 88.2999 220.4 88.3999C216.4 88.5999 212.4 89.4999 208.7 90.9999C208.8 91.0999 209 91.0999 209.1 91.0999C210.7 91.0999 212.3 90.8999 213.8 90.4999C214.1 90.3999 214.5 90.6999 214.6 90.9999C214.7 91.2999 214.5 91.5999 214.2 91.6999C210.3 93.0999 206.6 95.0999 203.3 97.4999C203.1 97.5999 203 97.6999 202.9 97.8999C202.9 97.7999 203.2 97.7999 203.5 97.6999L210.4 94.4999C211.1 94.0999 211.8 93.7999 212.5 93.4999C212.8 93.3999 213.2 93.4999 213.3 93.7999C213.4 94.0999 213.3 94.4999 213 94.5999L211 95.4999C209.5 96.2999 208.1 97.1999 206.8 98.3999C206.7 98.4999 206.6 98.5999 206.5 98.6999C206.6 98.5999 206.9 98.5999 207.2 98.4999C209.9 97.1999 212.5 95.5999 214.9 93.7999C215.2 93.5999 215.6 93.7999 215.8 94.0999C215.9 94.2999 215.9 94.5999 215.7 94.7999L210.6 98.6999H210.7C211 98.6999 211.3 98.4999 211.6 98.2999L217.8 94.6999C218.1 94.4999 218.5 94.6999 218.7 94.9999C218.8 95.2999 218.8 95.5999 218.5 95.7999L214.7 98.4999C214.1 98.8999 213.8 99.2999 213.9 99.4999C213.9 99.5999 214 99.5999 214 99.5999C214.5 99.6999 214.9 99.5999 215.4 99.3999C218.6 97.9999 222 96.9999 225.4 96.2999C225.8 96.1999 226.2 96.0999 226.6 95.9999C227.5 95.6999 228.3 95.5999 229.2 95.5999C230.6 95.6999 231.9 95.9999 233.2 96.3999C233.8 96.5999 234.3 96.6999 234.9 96.7999C237.7 97.3999 240.5 98.0999 243.3 98.6999C243.6 98.7999 243.8 99.0999 243.8 99.3999C243.7 99.6999 243.4 99.9999 243.1 99.8999C240.3 99.1999 237.5 98.5999 234.7 97.9999C234.1 97.8999 233.6 97.6999 232.9 97.5999C231.7 97.1999 230.4 96.9999 229.2 96.7999C228.4 96.7999 227.7 96.8999 226.9 97.1999C226.5 97.2999 226.1 97.3999 225.6 97.4999C222.2 98.0999 219 99.0999 215.8 100.5C215.1 100.7 214.6 100.8 214 100.9Z" fill="#1E1E1E"/>
<path d="M222.8 50.8C221.4 52.2 217.9 74.2001 216.7 84.6001Z" fill="white"/>
<path d="M216.7 85.1999C216.3 85.1999 216 84.8999 216.1 84.4999C216.9 77.9999 220.6 52.1 222.4 50.3C222.6 50 223.1 50 223.3 50.3C223.5 50.6 223.6 50.9999 223.3 51.1999C222.1 52.5999 218.7 73.1 217.3 84.6C217.2 85 217 85.1999 216.7 85.1999Z" fill="#1E1E1E"/>
<path d="M170.5 105.3L170.8 107.9L227.8 116.2L227.2 113.5L170.5 105.3Z" fill="white"/>
<path d="M227.8 116.9H227.7L170.7 108.6C170.4 108.6 170.1 108.3 170.1 108L169.9 105.5C169.9 105.1 170.1 104.8 170.5 104.7C170.6 104.7 170.6 104.7 170.7 104.7L227.4 112.9C227.7 112.9 227.9 113.2 228 113.4L228.6 116.1C228.7 116.5 228.5 116.8 228.1 116.9C227.9 116.9 227.9 116.9 227.8 116.9ZM171.4 107.2L226.9 115.3L226.6 114.1L171.3 106.1L171.4 107.2Z" fill="#1E1E1E"/>
<path d="M170.5 105.3C170.5 105.3 183.5 94.2 183.9 94.3C184.3 94.4 242.6 101.4 242.6 101.4L227.1 113.5L170.5 105.3Z" fill="white"/>
<path d="M227.2 114.2H227.1L170.4 106C170 105.9 169.8 105.6 169.8 105.2C169.8 105 169.9 104.9 170 104.8C183.3 93.3999 183.6 93.4999 184 93.5999C184.8 93.6999 222.7 98.2999 242.7 100.7C243.1 100.7 243.4 101.1 243.3 101.5C243.3 101.7 243.2 101.9 243 102L227.5 114.1C227.5 114.2 227.4 114.2 227.2 114.2ZM172.2 104.8L227 112.7L240.9 101.8C226.2 99.9999 187.7 95.3999 184 94.8999C182.9 95.7999 176.7 101 172.2 104.8Z" fill="#1E1E1E"/>
<path d="M227.8 116.2L242.9 103.9L242.7 101.4L227.2 113.5L227.8 116.2Z" fill="white"/>
<path d="M227.8 116.9C227.7 116.9 227.6 116.9 227.6 116.9C227.4 116.8 227.2 116.6 227.2 116.4L226.6 113.8C226.5 113.5 226.6 113.3 226.8 113.1L242.3 101C242.5 100.8 242.8 100.8 243 100.9C243.2 101 243.4 101.2 243.4 101.5L243.6 104C243.6 104.2 243.5 104.5 243.3 104.6L228.2 116.9C228.1 116.9 227.9 116.9 227.8 116.9ZM228 113.8L228.2 114.9L242.2 103.6L242.1 102.7L228 113.8Z" fill="#1E1E1E"/>
<path d="M170.5 105.3L159.6 68.5999L219.7 78.8998L227.2 113.5L170.5 105.3Z" fill="white"/>
<path d="M227.2 114.2H227.1L170.4 106C170.1 106 169.9 105.8 169.8 105.5L158.8 68.7998C158.7 68.5998 158.8 68.2998 158.9 68.0998C159.1 67.8998 159.3 67.7998 159.5 67.8998L219.6 78.0998C219.9 78.0998 220.1 78.3998 220.2 78.5998L227.7 113.3C227.8 113.7 227.6 114 227.2 114.1C227.3 114.2 227.2 114.2 227.2 114.2ZM171.1 104.7L226.3 112.7L219.1 79.4998L160.6 69.4998L171.1 104.7Z" fill="#1E1E1E"/>
<path d="M192.2 141.6C191.8 141.6 191.5 141.3 191.5 141C191.5 140.3 190.4 124.8 195.3 117.9C195.5 117.6 196 117.5 196.3 117.8C196.6 118 196.7 118.4 196.5 118.7C191.9 125.1 193 140.7 193 140.9C192.9 141.2 192.6 141.5 192.2 141.6Z" fill="white"/>
<path d="M242.9 76.6C242.7 76.6 242.5 76.5 242.4 76.4C242.1 76.1 242.1 75.7 242.4 75.4C245.9 72.2 251.5 66.5 251.8 65C252.1 63.5 249.6 61.8 248.7 61.2C248.5 61.1 248.4 60.9 248.3 60.6C248.3 60.4 248.4 60.2 248.6 60C250.2 58.7 251.7 57.3 253.2 55.9C253.4 55.2 252.4 50.9 251.4 47.3C251.3 46.9 251.5 46.5 251.8 46.4C252.2 46.3 252.6 46.5 252.7 46.9C253.9 50.8 255.1 55.7 254.3 56.7C253 58 251.7 59.3 250.2 60.5C251.4 61.4 253.6 63.2 253.1 65.2C252.6 67.5 244.8 74.9 243.3 76.3C243.3 76.5 243.1 76.5 242.9 76.6Z" fill="#1E1E1E"/>
<path d="M255.1 104.3L242.9 102.2C242.6 102.1 242.3 101.9 242.3 101.5L241.9 86.9999C241.9 86.5999 242.2 86.2999 242.5 86.2999L264.2 83.9999L254.6 50.9999C254.5 50.5999 254.7 50.1999 255.1 50.0999C255.5 49.9999 255.9 50.1999 256 50.5999L265.8 84.3999C265.9 84.5999 265.8 84.7999 265.7 84.9999C265.6 85.1999 265.4 85.2999 265.2 85.2999L243.3 87.5999L243.7 100.9L255.3 102.9C255.7 103 255.9 103.4 255.8 103.8C255.7 104.1 255.4 104.3 255.1 104.3Z" fill="#1E1E1E"/>
<path d="M231.5 76.6C231.2 76.6 231 76.5 230.9 76.2C230.7 75.8 225.8 66.9 225.1 63.6C224.5 60.9 227.1 59 228.7 58.1C227.5 57.4 226.4 56.6 225.4 55.7C225 55.3 223.9 54.2 230.3 47.6C230.6 47.3 231 47.3 231.3 47.6C231.6 47.9 231.6 48.3 231.3 48.6C228.7 51.2 226.6 54 226.5 54.9C227.8 55.9 229.1 56.9 230.5 57.7C230.8 57.9 230.9 58.3 230.7 58.7C230.6 58.8 230.5 58.9 230.4 59C230.4 59 225.8 60.8 226.4 63.4C227.1 66.5 232 75.5 232.1 75.6C232.3 75.9 232.2 76.4 231.8 76.5C231.6 76.5 231.6 76.5 231.5 76.6Z" fill="#1E1E1E"/>
<path d="M182 52.5999C181.7 52.5999 181.4 52.3999 181.4 51.9999C181.2 50.5999 181.7 49.2999 182.7 48.2999C183 48.0999 183.4 48.0999 183.6 48.2999C183.8 48.4999 183.8 48.9999 183.6 49.1999C182.9 49.8999 182.6 50.7999 182.7 51.7999C182.7 52.1999 182.4 52.4999 182 52.5999C182.1 52.4999 182.1 52.4999 182 52.5999Z" fill="#1E1E1E"/>
<path d="M53 66.5999H27.8C27.6 66.5999 27.4 66.4999 27.3 66.3999C27.2 66.2999 27.1 66.0999 27.1 65.8999C27.9 53.0999 33 40.7999 41.5 31.1999C43.2 29.2999 45 27.4999 46.9 25.7999C56.5 17.2999 68.8 12.1999 81.6 11.3999C81.8 11.3999 82 11.4999 82.1 11.5999C82.2 11.6999 82.3 11.8999 82.3 12.0999V37.2999C82.3 37.6999 82 37.9999 81.7 37.9999C67 39.7999 55.5 51.2999 53.7 65.9999C53.7 66.2999 53.4 66.5999 53 66.5999ZM28.6 65.1999H52.3C53.1 59.2999 55.5 53.6999 59.2 48.9999C64.6 42.1999 72.3 37.7999 80.9 36.5999V12.7999C68.6 13.6999 57 18.5999 47.8 26.7999C45.9 28.3999 44.2 30.1999 42.6 31.9999C34.4 41.2999 29.5 52.8999 28.6 65.1999Z" fill="#449247"/>
<path d="M85.4 128.1C84 128.1 82.8 128.1 81.6 128C68.8 127.2 56.5 122.1 46.9 113.6C45 111.9 43.2 110.1 41.5 108.2C33 98.6 27.9 86.4 27.1 73.5C27.1 73.3 27.2 73.1 27.3 73C27.4 72.9 27.6 72.8 27.8 72.8H53C53.4 72.8 53.7 73.1 53.7 73.4C55.4 88.1 67 99.7 81.7 101.4C84.1 101.7 86.6 101.7 89.1 101.4C95 100.7 100.6 98.4 105.2 94.7C107.1 93.2 108.9 91.4 110.4 89.5C114.1 84.9 116.4 79.3 117.1 73.4C117.4 71 117.4 68.5 117.1 66C116.4 60.1 114.1 54.5 110.4 49.9C110.2 49.6 110.2 49.2 110.5 49L128.3 31.2C128.4 31.1 128.6 31 128.8 31C129 31 129.2 31.1 129.3 31.2C137.8 40.8 142.9 53 143.7 65.9C143.8 67.1 143.8 68.3 143.8 69.7C143.8 71.1 143.8 72.3 143.7 73.5C142.9 86.3 137.8 98.6 129.3 108.2C127.6 110.1 125.8 111.9 123.9 113.6C114.3 122.1 102.1 127.2 89.2 128C88 128 86.7 128.1 85.4 128.1ZM28.5 74.1C29.4 86.4 34.3 98 42.5 107.2C44.1 109.1 45.9 110.8 47.7 112.4C57.1 120.7 69 125.7 81.5 126.5C84 126.7 86.5 126.7 88.9 126.5C101.5 125.7 113.4 120.8 122.8 112.4C124.7 110.8 126.4 109 128 107.2C136.3 97.8 141.3 85.9 142.1 73.3C142.2 72.1 142.2 70.9 142.2 69.6C142.2 68.3 142.2 67.1 142.1 65.9C141.3 53.6 136.6 41.9 128.5 32.6L111.7 49.4C115.3 54.2 117.6 59.8 118.3 65.7C118.4 67 118.5 68.3 118.5 69.5C118.5 77 116 84.3 111.3 90.2C105.8 97.1 97.8 101.6 89 102.6C86.4 102.9 83.9 102.9 81.3 102.6C66.2 100.8 54.2 89 52.1 73.9H28.5V74.1Z" fill="#449247"/>
<path d="M123.4 26.2999C113.9 17.8999 101.8 12.8999 89.1 12.0999V37.2999C95.1 37.9999 100.8 40.3999 105.6 44.1999L123.4 26.2999Z" fill="#449247"/>
<path d="M406.5 73.5001H353.3C352.9 73.5001 352.6 73.2001 352.6 72.8001V66.3001C352.6 65.9001 352.9 65.6001 353.3 65.6001H406.5C406.9 65.6001 407.2 65.9001 407.2 66.3001V72.8001C407.2 73.2001 406.9 73.5001 406.5 73.5001ZM354 72.1001H405.8V67.0001H354V72.1001Z" fill="#449247"/>
<path d="M391.5 92.4H353.3C352.9 92.4 352.6 92.1 352.6 91.7V85.2C352.6 84.8 352.9 84.5 353.3 84.5H391.5C391.9 84.5 392.2 84.8 392.2 85.2V91.7C392.2 92.1 391.9 92.4 391.5 92.4ZM354 91H390.8V86H354V91Z" fill="#449247"/>
<path d="M369.9 111.4H353.3C352.9 111.4 352.6 111.1 352.6 110.7V104.2C352.6 103.8 352.9 103.5 353.3 103.5H369.9C370.3 103.5 370.6 103.8 370.6 104.2V110.7C370.6 111 370.3 111.4 369.9 111.4ZM354 110H369.2V104.9H354V110Z" fill="#449247"/>
<path d="M435 130.3H353.3C352.9 130.3 352.6 130 352.6 129.6V123.1C352.6 122.7 352.9 122.4 353.3 122.4H435C435.4 122.4 435.7 122.7 435.7 123.1V129.6C435.7 130 435.4 130.3 435 130.3ZM354 128.9H434.3V123.8H354V128.9Z" fill="#449247"/>
<path d="M396.8 149.2H353.3C352.9 149.2 352.6 148.9 352.6 148.5V142C352.6 141.6 352.9 141.3 353.3 141.3H396.8C397.2 141.3 397.5 141.6 397.5 142V148.5C397.5 148.9 397.2 149.2 396.8 149.2ZM354 147.8H396.1V142.7H354V147.8Z" fill="#449247"/>
<path d="M65 226.6C64.6 226.6 64.3 226.3 64.3 225.9V200.4C64.3 200 64.6 199.7 65 199.7C65.4 199.7 65.7 200 65.7 200.4V226C65.7 226.4 65.4 226.6 65 226.6Z" fill="#1E1E1E"/>
<path d="M78.1 229H51.9C50.7 229 49.8 228 49.8 226.9V226.4C49.8 225.2 50.7 224.3 51.9 224.3H78.1C79.3 224.3 80.3 225.3 80.3 226.4V226.9C80.2 228 79.3 229 78.1 229ZM51.9 225.7C51.5 225.7 51.2 226 51.2 226.4V226.9C51.2 227.3 51.5 227.6 51.9 227.6H78.1C78.5 227.6 78.8 227.3 78.8 226.9V226.4C78.8 226 78.5 225.7 78.1 225.7H51.9Z" fill="#1E1E1E"/>
<path d="M74.2 248.1H55.7C55.4 248.1 55.1 247.9 55 247.5L51 228.4C51 228.2 51 228 51.2 227.8C51.3 227.6 51.5 227.5 51.8 227.5H78.3C78.5 227.5 78.7 227.6 78.9 227.8C79 228 79.1 228.2 79 228.4L75 247.5C74.8 247.8 74.6 248.1 74.2 248.1ZM56.3 246.6H73.6L77.3 229H52.6L56.3 246.6Z" fill="#1E1E1E"/>
<path d="M64.3001 205.8C64.3001 205.8 67.4001 199.9 72.0001 198.4C76.6001 196.9 82.6001 195.6 80.8001 190.9C79.0001 186.2 70.0001 185.4 66.2001 190.2C62.4001 195 63.7001 203.7 64.3001 205.8Z" fill="#1E1E1E"/>
<path d="M65 211.9C65 211.9 67.6 205.5 72.6 204.4C77.6 203.3 79.3 206.5 77.8 209.3C76.3 212.1 67.2 209.6 65 211.9Z" fill="#1E1E1E"/>
<path d="M65 208.7C65 208.7 63.8 203.4 59.1 201.1C54.4 198.8 50.5 201.9 51.6 204.4C52.7 206.9 56.9 206 59.7 206.8C61.5 207.4 63.3 208 65 208.7Z" fill="#1E1E1E"/>
<path d="M64.7001 220.9C66.4001 218.7 68.7001 216.9 71.4001 215.9C75.8001 214.2 79.3001 216.3 78.5001 218.8C76.4001 224.9 67.3001 218.9 64.7001 220.9Z" fill="#1E1E1E"/>
<path d="M65.2001 217.9C65.2001 217.9 63.8001 211.4 57.5001 210.4C51.2001 209.4 49.5001 213.5 50.4001 216.1C51.3001 218.7 55.7001 216.9 58.0001 216.6C60.3001 216.3 65.2001 217.9 65.2001 217.9Z" fill="#1E1E1E"/>
</svg>
