<svg width="48" height="48" viewBox="0 0 48 48" fill="none" xmlns="http://www.w3.org/2000/svg">
<path d="M31.3371 13.8063C31.1183 14.3626 30.2432 16.5876 29.5868 18.8126C28.4929 22.1501 27.5084 23.1513 23.7891 24.3751C17.7725 26.4888 17.4443 28.1576 22.6951 29.7151C27.7272 31.0501 28.9305 32.2738 30.2432 37.5026C31.5559 42.5088 32.7592 42.1751 34.8377 36.2788C36.3692 32.3851 37.3537 31.3838 41.4012 29.8263C44.136 28.8251 46.1051 27.4901 45.9957 26.9338C45.7769 26.2663 43.589 25.1538 40.9636 24.4863C36.8067 23.1513 36.1504 22.5951 34.9471 18.0338C33.6344 13.3613 32.431 11.9151 31.3371 13.8063Z" fill="#FFC107"/>
<path d="M13.9248 3.70212C13.7311 4.18646 12.9561 6.12385 12.3749 8.06124C11.4062 10.9673 10.5344 11.8391 7.24083 12.9047C1.91302 14.7452 1.62241 16.1983 6.27213 17.5544C10.7281 18.7169 11.7937 19.7824 12.9561 24.3353C14.1185 28.6944 15.1841 28.4038 17.0246 23.2697C18.3808 19.8793 19.2526 19.0075 22.8368 17.6513C25.2585 16.7795 27.0022 15.617 26.9053 15.1327C26.7116 14.5515 24.7742 13.5828 22.4493 13.0016C18.7683 11.8391 18.1871 11.3548 17.1215 7.38315C15.9591 3.31464 14.8935 2.05534 13.9248 3.70212Z" fill="#FFC107"/>
<path d="M14.397 32.4032C14.2836 32.6813 13.8298 33.7938 13.4895 34.9063C12.9223 36.575 12.4118 37.0757 10.4832 37.6875C7.36352 38.7444 7.19335 39.5788 9.916 40.3575C12.5252 41.025 13.1491 41.6369 13.8298 44.2513C14.5105 46.7544 15.1344 46.5875 16.2121 43.6394C17.0062 41.6925 17.5167 41.1919 19.6154 40.4132C21.0335 39.9125 22.0545 39.245 21.9977 38.9669C21.8843 38.6332 20.7499 38.0769 19.3885 37.7432C17.2331 37.0757 16.8928 36.7975 16.2688 34.5169C15.5882 32.1807 14.9642 31.4575 14.397 32.4032Z" fill="#FFC107"/>
</svg>
